<svg width="68" height="106" viewBox="0 0 68 106" fill="none" xmlns="http://www.w3.org/2000/svg">
<circle cx="16" cy="6" r="4.5" stroke="#6FD8FA" stroke-width="3"/>
<path d="M60.0607 52.0607C60.6464 51.4749 60.6464 50.5251 60.0607 49.9393L50.5147 40.3934C49.9289 39.8076 48.9792 39.8076 48.3934 40.3934C47.8076 40.9792 47.8076 41.9289 48.3934 42.5147L56.8787 51L48.3934 59.4853C47.8076 60.0711 47.8076 61.0208 48.3934 61.6066C48.9792 62.1924 49.9289 62.1924 50.5147 61.6066L60.0607 52.0607ZM14.5 11V46H17.5V11H14.5ZM21 52.5H59V49.5H21V52.5ZM14.5 46C14.5 49.5899 17.4101 52.5 21 52.5V49.5C19.067 49.5 17.5 47.933 17.5 46H14.5Z" fill="#6FD8FA"/>
</svg>
