<svg width="68" height="172" viewBox="0 0 68 172" fill="none" xmlns="http://www.w3.org/2000/svg">
<circle cx="16" cy="6" r="4.5" stroke="#6FD8FA" stroke-width="3"/>
<path d="M60.0607 79.0607C60.6464 78.4749 60.6464 77.5251 60.0607 76.9393L50.5147 67.3934C49.9289 66.8076 48.9792 66.8076 48.3934 67.3934C47.8076 67.9792 47.8076 68.9289 48.3934 69.5147L56.8787 78L48.3934 86.4853C47.8076 87.0711 47.8076 88.0208 48.3934 88.6066C48.9792 89.1924 49.9289 89.1924 50.5147 88.6066L60.0607 79.0607ZM14.5 11V73H17.5V11H14.5ZM21 79.5H59V76.5H21V79.5ZM14.5 73C14.5 76.5899 17.4101 79.5 21 79.5V76.5C19.067 76.5 17.5 74.933 17.5 73H14.5Z" fill="#6FD8FA"/>
</svg>
