<svg width="48" height="48" viewBox="0 0 48 48" fill="none" xmlns="http://www.w3.org/2000/svg">
<path d="M25.5 3C25.5 2.17157 24.8284 1.5 24 1.5C23.1716 1.5 22.5 2.17157 22.5 3L25.5 3ZM22.9393 46.0607C23.5251 46.6464 24.4749 46.6464 25.0607 46.0607L34.6066 36.5147C35.1924 35.9289 35.1924 34.9792 34.6066 34.3934C34.0208 33.8076 33.0711 33.8076 32.4853 34.3934L24 42.8787L15.5147 34.3934C14.9289 33.8076 13.9792 33.8076 13.3934 34.3934C12.8076 34.9792 12.8076 35.9289 13.3934 36.5147L22.9393 46.0607ZM22.5 3L22.5 45H25.5L25.5 3L22.5 3Z" fill="#05000F" fill-opacity="0.7"/>
</svg>
