<svg width="157" height="158" viewBox="0 0 157 158" fill="none" xmlns="http://www.w3.org/2000/svg">
<circle cx="65" cy="6" r="4.5" stroke="#6FD8FA" stroke-width="3"/>
<path d="M109.061 71.0607C109.646 70.4749 109.646 69.5251 109.061 68.9393L99.5147 59.3934C98.9289 58.8076 97.9792 58.8076 97.3934 59.3934C96.8076 59.9792 96.8076 60.9289 97.3934 61.5147L105.879 70L97.3934 78.4853C96.8076 79.0711 96.8076 80.0208 97.3934 80.6066C97.9792 81.1924 98.9289 81.1924 99.5147 80.6066L109.061 71.0607ZM63.5 11V65H66.5V11H63.5ZM70 71.5H108V68.5H70V71.5ZM63.5 65C63.5 68.5899 66.4101 71.5 70 71.5V68.5C68.067 68.5 66.5 66.933 66.5 65H63.5Z" fill="#6FD8FA"/>
</svg>
