<svg width="64" height="64" viewBox="0 0 64 64" fill="none" xmlns="http://www.w3.org/2000/svg">
<path d="M38.8775 11.393C42.7109 7.55967 48.9271 7.55967 52.7605 11.393C56.5939 15.2263 56.5939 21.4404 52.7605 25.2737L40.5448 37.4891C36.7114 41.3225 30.4972 41.3225 26.6638 37.4891C25.8971 36.7224 25.8971 35.4793 26.6638 34.7127C27.4305 33.946 28.6737 33.946 29.4404 34.7127C31.7403 37.0126 35.4682 37.0126 37.7683 34.7127L49.984 22.4972C52.2839 20.1973 52.2839 16.4693 49.984 14.1695C47.6839 11.8695 43.954 11.8695 41.654 14.1695L34.9925 20.8308C34.2258 21.5975 32.9827 21.5975 32.216 20.8308C31.4493 20.0641 31.4493 18.821 32.216 18.0543L38.8775 11.393Z" fill="#ECE6F9"/>
<path d="M22.499 49.9831L28.0513 44.431C28.818 43.6643 30.0612 43.6642 30.8279 44.4309C31.5946 45.1976 31.5946 46.4407 30.8279 47.2074L25.2756 52.7595C21.4402 56.5948 15.2256 56.5948 11.3926 52.7595C7.55922 48.9262 7.55922 42.7122 11.3926 38.8788L22.499 27.7727C26.3324 23.9394 32.5466 23.9394 36.38 27.7727C37.1467 28.5394 37.1467 29.7825 36.38 30.5492C35.6133 31.3159 34.3701 31.3159 33.6034 30.5492C31.3035 28.2493 27.5755 28.2493 25.2756 30.5492L14.1691 41.6554C11.8692 43.9553 11.8692 47.6832 14.1696 49.9836C16.4695 52.2849 20.1972 52.2849 22.499 49.9831Z" fill="#ECE6F9"/>
</svg>
