<svg width="137" height="137" viewBox="0 0 137 137" fill="none" xmlns="http://www.w3.org/2000/svg">
<g clip-path="url(#clip0_5_263)">
<path d="M68.4944 27.8275C42.425 27.8275 18.7839 42.0903 1.3391 65.257C-0.0843886 67.155 -0.0843886 69.8066 1.3391 71.7046C18.7839 94.8991 42.425 109.162 68.4944 109.162C94.5639 109.162 118.205 94.8991 135.65 71.7325C137.073 69.8345 137.073 67.1829 135.65 65.2849C118.205 42.0904 94.5639 27.8275 68.4944 27.8275ZM70.3645 97.132C53.0593 98.2206 38.7686 83.9578 39.8571 66.6247C40.7503 52.3339 52.3336 40.7506 66.6244 39.8574C83.9295 38.7689 98.2203 53.0317 97.1317 70.3648C96.2107 84.6276 84.6273 96.211 70.3645 97.132ZM69.4992 83.9019C60.1768 84.4881 52.4732 76.8124 53.0872 67.4899C53.5617 59.7863 59.8139 53.562 67.5175 53.0596C76.84 52.4735 84.5436 60.1492 83.9295 69.4716C83.4271 77.2032 77.1749 83.4274 69.4992 83.9019Z" fill="#ECE6F9"/>
</g>
<defs>
<clipPath id="clip0_5_263">
<rect width="136.446" height="136.446" fill="white" transform="translate(0.271484 0.271484)"/>
</clipPath>
</defs>
</svg>
