<svg width="91" height="91" viewBox="0 0 91 91" fill="none" xmlns="http://www.w3.org/2000/svg">
<path d="M63.4291 12.1858C59.3661 12.1858 55.641 13.4984 52.3575 16.0872C49.2097 18.5691 47.1138 21.7302 45.88 24.0289C44.6462 21.7301 42.5503 18.5691 39.4025 16.0872C36.119 13.4984 32.3939 12.1858 28.3309 12.1858C16.9924 12.1858 8.44189 21.6406 8.44189 34.1786C8.44189 47.724 19.1093 56.9916 35.2583 71.0214C38.0006 73.404 41.109 76.1046 44.3398 78.9849C44.7656 79.3651 45.3126 79.5744 45.88 79.5744C46.4474 79.5744 46.9944 79.3651 47.4202 78.985C50.6513 76.1043 53.7596 73.4039 56.5035 71.0199C72.6507 56.9916 83.3181 47.724 83.3181 34.1786C83.3181 21.6406 74.7676 12.1858 63.4291 12.1858Z" fill="#ECE6F9"/>
</svg>
