<svg width="250" height="67" viewBox="0 0 250 67" fill="none" xmlns="http://www.w3.org/2000/svg">
<g clip-path="url(#clip0_2869_4220)">
<path d="M92.6251 23.2338C92.6251 25.1149 91.9266 26.5922 90.5292 27.674C89.2648 28.6687 87.6682 29.1681 85.7385 29.1681C84.7405 29.1681 83.7842 29.0349 82.869 28.7728C81.7382 28.4564 80.9229 27.9945 80.4241 27.3787C80.1411 27.0332 80 26.6837 80 26.3384C80 25.7724 80.1912 25.3354 80.5737 25.0192C80.9563 24.7069 81.4304 24.5488 81.996 24.5488C82.2954 24.5488 82.9274 24.6862 83.8922 24.9607C84.9235 25.2522 85.7303 25.3979 86.3124 25.3979C86.8781 25.3979 87.3561 25.2353 87.7473 24.911C88.138 24.5863 88.3334 24.1493 88.3334 23.6042C88.3334 22.8885 88.0591 22.3724 87.5099 22.0559C87.0278 21.7731 86.2625 21.4776 85.2146 21.1611C83.6177 20.6787 82.4534 20.1294 81.7217 19.5134C80.707 18.6852 80.1995 17.5533 80.1995 16.1259C80.1995 14.378 80.848 12.9923 82.1456 11.9605C83.3598 10.999 84.8571 10.5164 86.6367 10.5164C88.1337 10.5164 89.3192 10.7744 90.1922 11.2903C91.0654 11.8064 91.5022 12.414 91.5022 13.113C91.5022 14.2616 90.8869 14.8359 89.656 14.8359C89.29 14.8359 88.7783 14.732 88.1215 14.5239C87.4642 14.3158 86.928 14.2118 86.5121 14.2118C85.9799 14.2118 85.5308 14.3283 85.1649 14.5613C84.749 14.8276 84.541 15.2188 84.541 15.7305C84.541 16.0302 84.6157 16.2883 84.7655 16.5046C84.9649 16.7879 85.4227 17.0624 86.1379 17.3287C86.6701 17.4953 87.2024 17.6615 87.7346 17.8279C89.2818 18.3567 90.4291 18.9808 91.1777 19.6965C92.1425 20.608 92.6251 21.7896 92.6251 23.2338ZM95.3448 19.0682C93.7312 19.0682 92.9244 18.4856 92.9244 17.3163C92.9244 16.2009 93.7312 15.6016 95.3448 15.5144C95.3448 13.8829 95.378 12.9008 95.4442 12.5679C95.6938 11.3818 96.3343 10.7909 97.3658 10.7909C98.3803 10.7909 99.0124 11.3818 99.2618 12.5679C99.3284 12.9008 99.3616 13.8829 99.3616 15.5144C101.308 15.5144 102.281 16.1177 102.281 17.3163C102.281 18.4856 101.308 19.0682 99.3616 19.0682V26.2178C99.3616 28.1858 98.6961 29.1681 97.3658 29.1681C96.0183 29.1681 95.3448 28.1858 95.3448 26.2178V19.0682ZM102.331 22.1519C102.331 20.1044 102.967 18.3855 104.239 16.9958C105.512 15.6058 107.155 14.9106 109.167 14.9106C111.213 14.9106 112.86 15.6016 114.108 16.9833C115.355 18.365 115.979 20.0879 115.979 22.1519C115.979 24.1993 115.363 25.9055 114.133 27.2705C112.852 28.6687 111.197 29.3679 109.167 29.3679C107.155 29.3679 105.5 28.6604 104.202 27.2455C102.955 25.8805 102.331 24.1826 102.331 22.1519ZM106.498 22.1269C106.498 23.0424 106.714 23.8164 107.146 24.4489C107.629 25.1813 108.302 25.5478 109.167 25.5478C110.049 25.5478 110.731 25.1813 111.213 24.4489C111.629 23.8331 111.837 23.0589 111.837 22.1269C111.837 21.2278 111.621 20.4624 111.188 19.8298C110.706 19.0972 110.032 18.7312 109.167 18.7312C108.286 18.7312 107.604 19.0889 107.121 19.8046C106.705 20.4372 106.498 21.2113 106.498 22.1269ZM118 26.2178V18.0859C118 16.1342 118.682 15.1604 120.046 15.1604C120.845 15.1604 121.485 15.5848 121.967 16.4339C122.799 15.5518 123.705 15.1107 124.687 15.1107C125.269 15.1107 125.76 15.298 126.159 15.6725C126.558 16.047 126.758 16.5256 126.758 17.1082C126.758 17.7407 126.417 18.2485 125.739 18.6313C125.656 18.6645 124.986 18.9225 123.731 19.4054C122.936 19.7215 122.458 20.0794 122.291 20.4789C122.159 20.7954 122.092 21.311 122.092 22.0272V26.2218C122.092 28.1858 121.414 29.1681 120.058 29.1681C118.686 29.1681 118 28.1858 118 26.2178ZM131.897 26.2178C131.897 28.1858 131.232 29.1681 129.902 29.1681C128.554 29.1681 127.881 28.1858 127.881 26.2178V18.0859C127.881 16.1342 128.554 15.1604 129.902 15.1604C131.232 15.1604 131.897 16.1342 131.897 18.0859V26.2178ZM127.556 11.74C127.556 11.0905 127.785 10.5414 128.242 10.092C128.7 9.64254 129.253 9.41772 129.902 9.41772C130.55 9.41772 131.095 9.64254 131.536 10.092C131.977 10.5414 132.197 11.0905 132.197 11.74C132.197 12.389 131.977 12.9383 131.536 13.3877C131.095 13.8371 130.55 14.062 129.902 14.062C129.236 14.062 128.679 13.8414 128.23 13.4002C127.781 12.9591 127.556 12.4057 127.556 11.74ZM138.185 23.2755C138.268 24.0579 138.593 24.657 139.158 25.0732C139.724 25.4893 140.414 25.6974 141.229 25.6974C141.911 25.6974 142.735 25.4768 143.699 25.0357C144.664 24.5945 145.263 24.3739 145.496 24.3739C146.56 24.3739 147.092 24.8983 147.092 25.947C147.092 26.3467 146.943 26.7461 146.643 27.1456C146.111 27.878 145.263 28.4356 144.098 28.8186C143.117 29.1516 142.094 29.3177 141.029 29.3177C139.034 29.3177 137.37 28.6312 136.04 27.2578C134.709 25.8848 134.043 24.1908 134.043 22.1768C134.043 20.1791 134.679 18.4731 135.952 17.0582C137.224 15.6433 138.851 14.9358 140.83 14.9358C141.811 14.9358 142.701 15.1189 143.5 15.4851C144.647 16.0177 145.587 16.8084 146.319 17.8571C147.051 18.9058 147.417 20.0462 147.417 21.278C147.417 21.9435 147.176 22.4514 146.694 22.8009C146.277 23.1174 145.729 23.2755 145.046 23.2755H138.185ZM138.135 20.6288H143.45C143.4 19.9298 143.13 19.3552 142.639 18.9058C142.148 18.4564 141.553 18.2316 140.855 18.2316C140.14 18.2316 139.541 18.4522 139.058 18.8933C138.576 19.3345 138.268 19.9128 138.135 20.6288ZM153.131 29.3429C150.885 29.3429 149.347 28.7271 148.515 27.4953C148.265 27.1291 148.14 26.7461 148.14 26.3467C148.14 25.1316 148.772 24.5238 150.037 24.5238C150.403 24.5238 150.914 24.7237 151.571 25.1231C152.228 25.5226 152.848 25.7222 153.43 25.7222C154.179 25.7222 154.553 25.4476 154.553 24.8983C154.553 24.5488 154.029 24.1409 152.981 23.675C151.534 23.0257 150.569 22.5181 150.087 22.1519C149.039 21.3694 148.515 20.4122 148.515 19.2803C148.515 17.9488 149.03 16.8751 150.062 16.0595C151.026 15.2938 152.191 14.9106 153.555 14.9106C154.403 14.9106 155.21 15.044 155.975 15.3103C156.89 15.6268 157.547 16.0844 157.946 16.6837C158.179 17.0332 158.296 17.3829 158.296 17.7324C158.296 18.2151 158.138 18.6188 157.821 18.9433C157.51 19.268 157.11 19.4302 156.632 19.4302C156.283 19.4302 155.759 19.268 155.052 18.9433C154.349 18.6188 153.8 18.4564 153.401 18.4564C152.79 18.4564 152.482 18.6892 152.482 19.1556C152.482 19.5218 152.74 19.8046 153.251 20.0047C154.378 20.4372 155.181 20.7702 155.663 21.0032C156.59 21.4694 157.293 21.9605 157.776 22.4766C158.32 23.0759 158.595 23.8331 158.595 24.7484C158.595 26.1468 158.021 27.2787 156.873 28.1443C155.809 28.9432 154.561 29.3429 153.131 29.3429ZM173.266 21.5778V26.2218C173.266 28.1858 172.576 29.1681 171.195 29.1681C169.815 29.1681 169.124 28.1858 169.124 26.226V13.4587C169.124 11.4984 169.815 10.5164 171.195 10.5164C172.576 10.5164 173.266 11.4984 173.266 13.4627V17.7574H180.901V13.4627C180.901 11.4984 181.591 10.5164 182.972 10.5164C184.352 10.5164 185.043 11.4984 185.043 13.4587V26.226C185.043 28.1858 184.352 29.1681 182.972 29.1681C181.591 29.1681 180.901 28.1858 180.901 26.2218V21.5778H173.266ZM187.962 23.4504V18.0819C187.962 16.1342 188.636 15.1604 189.983 15.1604C191.33 15.1604 192.004 16.1302 192.004 18.0737V22.6095C192.004 23.5043 192.121 24.1783 192.353 24.628C192.669 25.2395 193.243 25.5478 194.075 25.5478C194.906 25.5478 195.481 25.2395 195.796 24.628C196.029 24.1783 196.146 23.5043 196.146 22.6095V18.0737C196.146 16.1302 196.819 15.1604 198.167 15.1604C199.497 15.1604 200.163 16.1342 200.163 18.0819V23.4504C200.163 25.3812 199.635 26.8501 198.578 27.8571C197.522 28.8643 196.021 29.3679 194.075 29.3679C192.129 29.3679 190.624 28.8643 189.559 27.8571C188.494 26.8501 187.962 25.3812 187.962 23.4504ZM202.858 26.2178V18.0859C202.858 16.1342 203.539 15.1604 204.903 15.1604C205.702 15.1604 206.342 15.5848 206.825 16.4339C207.59 15.5848 208.771 15.1604 210.368 15.1604C213.644 15.1604 215.283 16.9126 215.283 20.4122V26.2178C215.283 28.1858 214.609 29.1681 213.262 29.1681C211.915 29.1681 211.241 28.1858 211.241 26.2218V21.6525C211.241 20.6537 211.125 19.9463 210.892 19.5301C210.58 18.9308 209.977 18.6313 209.083 18.6313C207.661 18.6313 206.949 19.6215 206.949 21.6025V26.2218C206.949 28.1858 206.272 29.1681 204.916 29.1681C203.544 29.1681 202.858 28.1858 202.858 26.2178ZM218.776 19.0682C217.163 19.0682 216.356 18.4856 216.356 17.3163C216.356 16.2009 217.163 15.6016 218.776 15.5144C218.776 13.8829 218.81 12.9008 218.876 12.5679C219.126 11.3818 219.766 10.7909 220.797 10.7909C221.812 10.7909 222.444 11.3818 222.693 12.5679C222.76 12.9008 222.793 13.8829 222.793 15.5144C224.74 15.5144 225.713 16.1177 225.713 17.3163C225.713 18.4856 224.74 19.0682 222.793 19.0682V26.2178C222.793 28.1858 222.128 29.1681 220.797 29.1681C219.45 29.1681 218.776 28.1858 218.776 26.2178V19.0682ZM229.904 23.2755C229.987 24.0579 230.312 24.657 230.877 25.0732C231.443 25.4893 232.133 25.6974 232.948 25.6974C233.63 25.6974 234.454 25.4768 235.418 25.0357C236.383 24.5945 236.982 24.3739 237.215 24.3739C238.279 24.3739 238.812 24.8983 238.812 25.947C238.812 26.3467 238.662 26.7461 238.363 27.1456C237.83 27.878 236.982 28.4356 235.818 28.8186C234.836 29.1516 233.813 29.3177 232.749 29.3177C230.753 29.3177 229.089 28.6312 227.759 27.2578C226.428 25.8848 225.762 24.1908 225.762 22.1768C225.762 20.1791 226.399 18.4731 227.671 17.0582C228.944 15.6433 230.57 14.9358 232.549 14.9358C233.531 14.9358 234.42 15.1189 235.219 15.4851C236.367 16.0177 237.306 16.8084 238.038 17.8571C238.77 18.9058 239.136 20.0462 239.136 21.278C239.136 21.9435 238.895 22.4514 238.413 22.8009C237.996 23.1174 237.448 23.2755 236.766 23.2755H229.904ZM229.854 20.6288H235.169C235.119 19.9298 234.849 19.3552 234.358 18.9058C233.867 18.4564 233.273 18.2316 232.574 18.2316C231.859 18.2316 231.26 18.4522 230.777 18.8933C230.295 19.3345 229.987 19.9128 229.854 20.6288ZM240.958 26.2178V18.0859C240.958 16.1342 241.64 15.1604 243.003 15.1604C243.802 15.1604 244.442 15.5848 244.925 16.4339C245.756 15.5518 246.663 15.1107 247.644 15.1107C248.227 15.1107 248.717 15.298 249.116 15.6725C249.515 16.047 249.715 16.5256 249.715 17.1082C249.715 17.7407 249.374 18.2485 248.697 18.6313C248.613 18.6645 247.944 18.9225 246.688 19.4054C245.894 19.7215 245.415 20.0794 245.249 20.4789C245.116 20.7954 245.049 21.311 245.049 22.0272V26.2218C245.049 28.1858 244.372 29.1681 243.016 29.1681C241.644 29.1681 240.958 28.1858 240.958 26.2178Z" fill="white"/>
<path d="M85.2397 48.1825C85.2397 50.1426 84.5493 51.1246 83.1686 51.1246C81.7879 51.1246 81.0977 50.1426 81.0977 48.1825V35.4152C81.0977 33.4549 81.7879 32.4729 83.1686 32.4729C84.5493 32.4729 85.2397 33.4549 85.2397 35.4152V48.1825ZM88.3337 48.1743V40.0425C88.3337 38.0909 89.0157 37.1169 90.3794 37.1169C91.178 37.1169 91.8185 37.5414 92.3008 38.3904C93.0659 37.5414 94.2469 37.1169 95.8436 37.1169C99.1207 37.1169 100.759 38.8691 100.759 42.3687V48.1743C100.759 50.1426 100.086 51.1246 98.738 51.1246C97.3908 51.1246 96.717 50.1425 96.717 48.1783V43.609C96.717 42.6102 96.6007 41.9028 96.3676 41.4866C96.0558 40.8873 95.4529 40.5878 94.5587 40.5878C93.1366 40.5878 92.4254 41.578 92.4254 43.559V48.1783C92.4254 50.1425 91.7476 51.1246 90.3921 51.1246C89.0197 51.1246 88.3337 50.1426 88.3337 48.1743ZM107.321 51.2994C105.076 51.2994 103.537 50.6836 102.705 49.4518C102.456 49.0856 102.331 48.7026 102.331 48.3032C102.331 47.0881 102.963 46.4803 104.227 46.4803C104.593 46.4803 105.105 46.6802 105.762 47.0796C106.419 47.4791 107.038 47.6787 107.621 47.6787C108.369 47.6787 108.743 47.4041 108.743 46.8548C108.743 46.5053 108.219 46.0976 107.172 45.6315C105.724 44.9822 104.76 44.4746 104.277 44.1084C103.229 43.326 102.705 42.3687 102.705 41.2368C102.705 39.9053 103.221 38.8316 104.252 38.016C105.217 37.2503 106.381 36.8673 107.745 36.8673C108.594 36.8673 109.4 37.0005 110.166 37.2668C111.08 37.5833 111.738 38.0409 112.137 38.6402C112.37 38.9897 112.486 39.3395 112.486 39.6889C112.486 40.1716 112.328 40.5753 112.012 40.8998C111.7 41.2245 111.301 41.3867 110.823 41.3867C110.473 41.3867 109.949 41.2245 109.242 40.8998C108.54 40.5753 107.991 40.4129 107.592 40.4129C106.98 40.4129 106.672 40.6458 106.672 41.1121C106.672 41.4783 106.93 41.7612 107.442 41.9612C108.569 42.3937 109.372 42.7267 109.854 42.9597C110.781 43.4259 111.484 43.917 111.966 44.4331C112.511 45.0324 112.785 45.7896 112.785 46.7049C112.785 48.1036 112.211 49.2352 111.064 50.1008C109.999 50.8998 108.752 51.2994 107.321 51.2994ZM115.405 41.0249C113.792 41.0249 112.985 40.4421 112.985 39.2728C112.985 38.1574 113.792 37.5583 115.405 37.4709C115.405 35.8394 115.439 34.8574 115.505 34.5246C115.755 33.3383 116.395 32.7475 117.426 32.7475C118.441 32.7475 119.073 33.3383 119.322 34.5246C119.389 34.8574 119.422 35.8394 119.422 37.4709C121.369 37.4709 122.342 38.0742 122.342 39.2728C122.342 40.4421 121.369 41.0249 119.422 41.0249V48.1743C119.422 50.1426 118.757 51.1246 117.426 51.1246C116.079 51.1246 115.405 50.1426 115.405 48.1743V41.0249ZM126.533 44.0586C126.533 44.9405 126.741 45.6897 127.153 46.3057C127.635 47.0047 128.296 47.3544 129.141 47.3544C129.985 47.3544 130.638 47.0047 131.103 46.3057C131.499 45.6897 131.698 44.9405 131.698 44.0586C131.698 43.1761 131.499 42.4354 131.103 41.8361C130.638 41.1536 129.985 40.8126 129.141 40.8126C128.313 40.8126 127.66 41.1536 127.178 41.8361C126.75 42.4521 126.533 43.1926 126.533 44.0586ZM131.873 49.7012C131.041 50.7166 129.91 51.2245 128.479 51.2245C126.666 51.2245 125.169 50.4753 123.988 48.9772C122.907 47.5957 122.367 45.9727 122.367 44.1084C122.367 42.2275 122.932 40.5878 124.063 39.1896C125.261 37.6912 126.783 36.9421 128.629 36.9421C129.977 36.9421 131.058 37.4249 131.873 38.3904C132.338 37.5414 132.979 37.1169 133.794 37.1169C135.125 37.1169 135.79 38.0909 135.79 40.0425V48.1743C135.79 50.1426 135.125 51.1246 133.794 51.1246C132.912 51.1246 132.272 50.6502 131.873 49.7012ZM147.292 44.3455V43.6215C147.292 41.7154 146.394 40.7626 144.598 40.7626C143.749 40.7626 143.084 41.1204 142.601 41.8403C142.169 42.4564 141.953 43.2095 141.953 44.0959C141.953 44.9989 142.161 45.7646 142.577 46.4014C143.059 47.1211 143.733 47.4791 144.598 47.4791C145.479 47.4791 146.161 47.1713 146.643 46.551C147.076 45.9852 147.292 45.2485 147.292 44.3455ZM147.292 49.227H147.192C146.344 50.4918 145.155 51.1246 143.625 51.1246C142.843 51.1246 142.094 50.9499 141.379 50.6002C140.215 50.0177 139.308 49.1106 138.659 47.8788C138.077 46.7466 137.786 45.4901 137.786 44.1084C137.786 42.2275 138.352 40.5878 139.483 39.1896C140.68 37.6912 142.202 36.9421 144.049 36.9421C145.396 36.9421 146.477 37.4249 147.292 38.3904C147.708 37.5414 148.299 37.1169 149.064 37.1169C150.411 37.1169 151.085 38.0909 151.085 40.0384V48.1533C151.085 49.4016 151.027 50.4753 150.91 51.3744C150.677 53.1555 149.912 54.5203 148.615 55.469C147.417 56.3349 145.878 56.7676 143.999 56.7676C142.136 56.7676 140.684 56.472 139.645 55.881C138.605 55.2904 138.086 54.6035 138.086 53.8211C138.086 53.3054 138.248 52.8807 138.572 52.5478C138.896 52.2148 139.316 52.0484 139.832 52.0484C140.131 52.0484 140.722 52.2275 141.604 52.5852C142.485 52.9432 143.334 53.1223 144.149 53.1223C145.18 53.1223 145.961 52.8141 146.494 52.1983C147.026 51.5825 147.292 50.7586 147.292 49.7264V49.227ZM153.829 48.1743V40.0425C153.829 38.0909 154.511 37.1169 155.875 37.1169C156.674 37.1169 157.314 37.5414 157.797 38.3904C158.628 37.5083 159.535 37.0672 160.516 37.0672C161.098 37.0672 161.589 37.2545 161.988 37.629C162.387 38.0035 162.587 38.4821 162.587 39.0647C162.587 39.6972 162.246 40.205 161.569 40.5878C161.485 40.621 160.815 40.8791 159.56 41.3619C158.766 41.678 158.287 42.0362 158.121 42.4354C157.988 42.7519 157.921 43.2675 157.921 43.9837V48.1783C157.921 50.1425 157.243 51.1246 155.888 51.1246C154.515 51.1246 153.829 50.1426 153.829 48.1743ZM166.979 44.0586C166.979 44.9405 167.186 45.6897 167.598 46.3057C168.081 47.0047 168.742 47.3544 169.586 47.3544C170.43 47.3544 171.083 47.0047 171.549 46.3057C171.944 45.6897 172.143 44.9405 172.143 44.0586C172.143 43.1761 171.944 42.4354 171.549 41.8361C171.083 41.1536 170.43 40.8126 169.586 40.8126C168.758 40.8126 168.105 41.1536 167.623 41.8361C167.195 42.4521 166.979 43.1926 166.979 44.0586ZM172.318 49.7012C171.486 50.7166 170.355 51.2245 168.925 51.2245C167.112 51.2245 165.615 50.4753 164.434 48.9772C163.352 47.5957 162.812 45.9727 162.812 44.1084C162.812 42.2275 163.377 40.5878 164.508 39.1896C165.706 37.6912 167.228 36.9421 169.074 36.9421C170.422 36.9421 171.503 37.4249 172.318 38.3904C172.784 37.5414 173.424 37.1169 174.239 37.1169C175.57 37.1169 176.235 38.0909 176.235 40.0425V48.1743C176.235 50.1426 175.57 51.1246 174.239 51.1246C173.358 51.1246 172.717 50.6502 172.318 49.7012ZM178.98 48.1743V40.0425C178.98 38.0909 179.637 37.1169 180.951 37.1169C181.799 37.1169 182.465 37.5414 182.947 38.3904C183.696 37.5414 184.768 37.1169 186.166 37.1169C187.929 37.1169 189.268 37.7332 190.182 38.965C191.297 37.7332 192.653 37.1169 194.25 37.1169C197.293 37.1169 198.816 38.8691 198.816 42.3687V48.1743C198.816 50.1426 198.146 51.1246 196.807 51.1246C195.501 51.1246 194.849 50.1425 194.849 48.1783V43.609C194.849 41.5948 194.22 40.5878 192.965 40.5878C191.592 40.5878 190.906 41.578 190.906 43.559V48.1783C190.906 50.1425 190.245 51.1246 188.923 51.1246C187.6 51.1246 186.939 50.1425 186.939 48.1783V43.609C186.939 41.5948 186.319 40.5878 185.08 40.5878C183.691 40.5878 182.997 41.578 182.997 43.559V48.1783C182.997 50.1425 182.34 51.1246 181.026 51.1246C179.662 51.1246 178.98 50.1426 178.98 48.1743Z" fill="white"/>
<rect width="67" height="67" rx="15" fill="white" fill-opacity="0.7"/>
<path fill-rule="evenodd" clip-rule="evenodd" d="M34.1214 33.469C34.1214 37.6437 37.6779 39.5785 40.9617 39.5785C43.5138 39.5785 46.2591 37.4822 46.2591 32.7803C46.5892 32.7803 46.8882 32.6479 46.8882 32.1938C46.8882 31.7013 46.8882 31.7979 46.8882 31.3054C46.8882 30.9435 46.6243 30.7638 46.2197 30.7638C46.2197 29.8594 44.167 29.6773 43.033 29.6867C39.8401 29.7136 35.7372 29.9328 34.5047 31.4227C33.9217 31.4227 33.3385 31.4227 32.7554 31.4227C31.5227 29.9328 27.4198 29.7136 24.227 29.6867C23.1133 29.6773 21.1135 29.853 21.0423 30.716C24.3745 32.9965 27.257 35.824 29.6169 38.8844C31.6023 37.989 33.1386 36.2129 33.1386 33.469C33.4662 33.469 33.7937 33.469 34.1214 33.469ZM17.1995 11.6545C14.1415 11.6545 11.6542 14.1417 11.6542 17.1994V26.4828C12.7819 27.783 14.1338 28.6539 15.6731 29.1665C15.6731 29.5858 15.6731 30.0052 15.6731 30.4245C28.8597 36.5548 36.5907 51.5676 36.5907 62C33.0818 51.1213 24.6662 45.2961 13.6093 43.362C15.1557 42.0843 16.7018 40.8064 18.2481 39.5288L11.6542 33.6453V49.8003C11.6542 52.8582 14.1415 55.3456 17.1995 55.3456H31.5135C32.8999 57.2775 34.0394 59.4887 34.8986 62H17.1995C10.4721 62 5 56.5268 5 49.8003V17.1994C5 10.4722 10.4721 5.0001 17.1995 5.0001H24.3419C24.0657 5.28417 23.8062 5.60726 23.5659 5.97111C22.5844 7.45832 21.7358 9.51521 21.0754 11.6545H17.1995ZM33.63 28.4728C42.7397 28.4728 52.8217 26.6095 52.8217 23.162C52.8217 21.2719 49.3492 20.0607 46.9642 19.7679C43.7775 21.9773 39.8438 23.5213 33.63 23.5213C27.4161 23.5213 23.4827 21.9773 20.2957 19.7679C17.9108 20.0607 14.4383 21.2719 14.4383 23.162C14.4383 26.6095 24.5203 28.4728 33.63 28.4728ZM33.63 21.4764C28.8643 21.4764 24.7666 20.1655 21.2785 18.282C21.6794 14.7782 23.1151 9.56957 24.906 6.85555C26.3654 4.64413 28.6571 4.53519 30.8553 5.86502C31.9973 6.55613 32.7462 7.58041 33.63 7.58041C34.5137 7.58041 35.2627 6.55613 36.4048 5.86502C38.603 4.53519 40.8946 4.64413 42.3539 6.85555C44.1449 9.56957 45.5805 14.7782 45.9814 18.282C42.4931 20.1655 38.3959 21.4764 33.63 21.4764ZM55.3456 26.1866C53.8122 27.7039 52.0828 28.9147 49.9421 29.4809C49.3643 36.856 45.3646 43.3164 34.8265 48.029C35.2852 49.3867 35.7438 50.7443 36.2025 52.102C40.1597 47.3285 45.3887 44.3639 51.9667 43.3171C51.2872 42.1218 50.6077 40.9261 49.9282 39.7307L55.3456 32.6793V49.8003C55.3456 52.8582 52.8581 55.3456 49.8009 55.3456H37.3515C37.8894 57.5645 38.1964 59.8092 38.1964 62H49.8009C56.5279 62 62 56.5268 62 49.8003V17.1994C62 10.4722 56.5279 5.0001 49.8009 5.0001H42.9181C43.1943 5.28417 43.454 5.60726 43.6942 5.97111C44.6755 7.45832 45.5242 9.51521 46.1846 11.6545H49.8009C52.8581 11.6545 55.3456 14.1417 55.3456 17.1994V26.1866Z" fill="url(#paint0_radial_2869_4220)"/>
</g>
<defs>
<radialGradient id="paint0_radial_2869_4220" cx="0" cy="0" r="1" gradientUnits="userSpaceOnUse" gradientTransform="translate(10.6992 63.7144) rotate(-46.3886) scale(98.7616 98.7617)">
<stop stop-color="#FEC053"/>
<stop offset="0.329412" stop-color="#F2203E"/>
<stop offset="0.65098" stop-color="#B729A8"/>
<stop offset="1" stop-color="#5342D6"/>
</radialGradient>
<clipPath id="clip0_2869_4220">
<rect width="250" height="67" fill="white"/>
</clipPath>
</defs>
</svg>
