<svg width="36" height="36" viewBox="0 0 36 36" fill="none" xmlns="http://www.w3.org/2000/svg">
<g clip-path="url(#clip0_1_7642)">
<path d="M0.642578 12.2143V26.6785C0.642578 31.4518 4.54794 35.3571 9.32115 35.3571H26.6783C31.4515 35.3571 35.3569 31.4518 35.3569 26.6785V12.2143H0.642578ZM26.6783 9.32139H35.3569C35.3569 4.54818 31.4515 0.642822 26.6783 0.642822H22.339L26.6783 9.32139ZM16.5533 9.32139H23.7854L19.4461 0.642822H12.214L16.5533 9.32139ZM0.642578 9.32139H13.6604L9.32115 0.642822C4.54794 0.642822 0.642578 4.54818 0.642578 9.32139ZM15.1069 28.125C14.3837 28.125 13.6604 27.4018 13.6604 26.6785V18C13.6604 17.4214 13.9497 16.9875 14.3837 16.6982C14.8176 16.4089 15.3962 16.4089 15.8301 16.6982L23.0622 21.0375C23.4962 21.3268 23.7854 21.7607 23.7854 22.3393C23.7854 22.9178 23.4962 23.3518 23.0622 23.641L15.8301 27.9803C15.6854 28.125 15.3962 28.125 15.1069 28.125Z" fill="#261E39"/>
</g>
<defs>
<clipPath id="clip0_1_7642">
<rect width="36" height="36" fill="white"/>
</clipPath>
</defs>
</svg>
