<svg width="36" height="36" viewBox="0 0 36 36" fill="none" xmlns="http://www.w3.org/2000/svg">
<g clip-path="url(#clip0_1_7664)">
<path d="M18 0.1875C8.17875 0.1875 0.1875 8.17875 0.1875 18C0.1875 22.7625 2.04 27.2363 5.40752 30.6C8.77501 33.96 13.245 35.8125 18 35.8125C22.755 35.8125 27.225 33.96 30.5925 30.6C33.96 27.2363 35.8125 22.7625 35.8125 18C35.8125 8.17875 27.8213 0.1875 18 0.1875ZM18 6.76875C22.3388 6.76875 25.8563 10.2862 25.8563 14.625C25.8563 18.9638 22.3388 22.4813 18 22.4813C13.6612 22.4813 10.1437 18.9638 10.1437 14.625C10.1437 10.2862 13.6612 6.76875 18 6.76875ZM13.5563 24.1537H22.4438C25.4925 24.1537 28.1212 25.9537 29.325 28.5525C29.2012 28.6875 29.0738 28.8187 28.9425 28.95C26.0175 31.8712 22.1325 33.48 18 33.48C13.8675 33.48 9.9825 31.8712 7.0575 28.95C6.92626 28.8187 6.79875 28.6875 6.675 28.5525C7.87875 25.9537 10.5075 24.1537 13.5563 24.1537Z" fill="#261E39"/>
</g>
<defs>
<clipPath id="clip0_1_7664">
<rect width="36" height="36" fill="white"/>
</clipPath>
</defs>
</svg>
