<svg width="36" height="36" viewBox="0 0 36 36" fill="none" xmlns="http://www.w3.org/2000/svg">
<path d="M31.6557 23.9137C31.5737 23.8954 31.4888 23.8935 31.406 23.9081C31.3232 23.9227 31.2441 23.9535 31.1733 23.9988C31.1024 24.0441 31.0412 24.1029 30.9931 24.1718C30.9451 24.2408 30.9111 24.3186 30.8932 24.4007L30.3549 26.8166C29.8071 25.8129 28.965 25.001 27.9419 24.4903C26.9188 23.9795 25.7638 23.7944 24.6323 23.9598C23.5008 24.1253 22.4472 24.6333 21.6131 25.4156C20.7791 26.1978 20.2046 27.2168 19.9671 28.3354C19.3605 28.0126 18.6838 27.8437 17.9966 27.8437C17.3094 27.8437 16.6327 28.0126 16.0261 28.3354C15.78 27.2227 15.2014 26.2112 14.3672 25.4349C13.5329 24.6586 12.4823 24.1543 11.3548 23.9889C10.2274 23.8235 9.07622 24.0047 8.05413 24.5086C7.03203 25.0125 6.18728 25.8153 5.63193 26.8103L5.10645 24.4456C5.06637 24.2827 4.96398 24.142 4.8213 24.0538C4.67861 23.9656 4.50702 23.9368 4.34338 23.9738C4.17973 24.0107 4.0371 24.1103 3.94613 24.2513C3.85516 24.3922 3.8231 24.5632 3.85685 24.7276L4.93984 29.5978C5.30292 36.7738 15.5051 36.9695 16.135 29.8221C16.6509 29.375 17.3107 29.1289 17.9934 29.1289C18.6761 29.1289 19.3359 29.3751 19.8518 29.8222C19.8582 29.9759 19.871 30.1297 19.8902 30.2835C20.0851 31.6814 20.8 32.9543 21.8924 33.8481C22.9847 34.7419 24.374 35.1907 25.7828 35.1049C27.1916 35.0191 28.5162 34.4051 29.492 33.3854C30.4679 32.3657 31.0231 31.0154 31.0469 29.6042L32.1428 24.6827C32.1798 24.5162 32.1493 24.3418 32.0581 24.1976C31.9668 24.0535 31.8221 23.9514 31.6557 23.9137Z" fill="#261E39"/>
<path d="M32.0847 12.9492C31.134 12.5836 30.1599 12.2818 29.169 12.0457C28.3231 9.95659 27.1376 6.89986 25.6124 2.93317C25.46 2.53575 25.221 2.1772 24.9129 1.8835C24.6048 1.58979 24.2352 1.36828 23.8309 1.23499C23.4258 1.09975 22.9958 1.05548 22.5716 1.10532C22.1474 1.15516 21.7394 1.2979 21.3766 1.52336L18.8902 3.08697C18.6314 3.24415 18.3343 3.32728 18.0315 3.32728C17.7287 3.32728 17.4316 3.24415 17.1728 3.08697L14.6416 1.49773C14.2814 1.27758 13.8778 1.13831 13.4585 1.08956C13.0392 1.04082 12.6144 1.08375 12.2134 1.21539C11.8123 1.34704 11.4447 1.56425 11.1359 1.852C10.8271 2.13974 10.5845 2.49115 10.4249 2.8819L6.75302 12.0649C3.73475 12.7188 -0.118408 14.4995 0.0565302 16.5956C0.329963 24.2009 35.6694 24.2022 35.9425 16.5955C35.9425 15.6151 35.2696 14.1924 32.0847 12.9492Z" fill="#261E39"/>
</svg>
