<svg width="36" height="36" viewBox="0 0 36 36" fill="none" xmlns="http://www.w3.org/2000/svg">
<g clip-path="url(#clip0_1_7658)">
<path d="M29.8091 0.00439453H6.1899C2.77073 0.00439453 0.00390625 2.78247 0.00390625 6.19038V29.8096C0.00390625 33.2175 2.77073 35.9956 6.1899 35.9956H29.8091C33.217 35.9956 35.9951 33.2175 35.9951 29.8096V6.19038C35.9951 2.78247 33.217 0.00439453 29.8091 0.00439453ZM13.5006 3.37857H15.1877C16.11 3.37857 16.8748 4.13214 16.8748 5.06566C16.8748 5.99918 16.11 6.75275 15.1877 6.75275H13.5006C12.5671 6.75275 11.8135 5.99918 11.8135 5.06566C11.8135 4.13214 12.5671 3.37857 13.5006 3.37857ZM23.1508 17.089C23.4432 17.3027 23.6231 17.6401 23.6231 18C23.6231 18.3712 23.4432 18.7086 23.1508 18.9223L15.2777 24.5459C15.0752 24.6809 14.8503 24.7484 14.6253 24.7484C14.4454 24.7484 14.2654 24.7146 14.108 24.6246C13.7368 24.4334 13.5006 24.051 13.5006 23.6236V12.3764C13.5006 11.9602 13.7368 11.5778 14.108 11.3866C14.4791 11.1954 14.929 11.2179 15.2777 11.4653L23.1508 17.089ZM7.87698 32.6214H6.1899C5.25637 32.6214 4.50281 31.8679 4.50281 30.9343C4.50281 30.0008 5.25637 29.2473 6.1899 29.2473H7.87698C8.79926 29.2473 9.56407 30.0008 9.56407 30.9343C9.56407 31.8679 8.79926 32.6214 7.87698 32.6214ZM7.87698 6.75275H6.1899C5.25637 6.75275 4.50281 5.99918 4.50281 5.06566C4.50281 4.13214 5.25637 3.37857 6.1899 3.37857H7.87698C8.79926 3.37857 9.56407 4.13214 9.56407 5.06566C9.56407 5.99918 8.79926 6.75275 7.87698 6.75275ZM15.1877 32.6214H13.5006C12.5671 32.6214 11.8135 31.8679 11.8135 30.9343C11.8135 30.0008 12.5671 29.2473 13.5006 29.2473H15.1877C16.11 29.2473 16.8748 30.0008 16.8748 30.9343C16.8748 31.8679 16.11 32.6214 15.1877 32.6214ZM22.4984 32.6214H20.8113C19.8778 32.6214 19.1242 31.8679 19.1242 30.9343C19.1242 30.0008 19.8778 29.2473 20.8113 29.2473H22.4984C23.4207 29.2473 24.1855 30.0008 24.1855 30.9343C24.1855 31.8679 23.4207 32.6214 22.4984 32.6214ZM22.4984 6.75275H20.8113C19.8778 6.75275 19.1242 5.99918 19.1242 5.06566C19.1242 4.13214 19.8778 3.37857 20.8113 3.37857H22.4984C23.4207 3.37857 24.1855 4.13214 24.1855 5.06566C24.1855 5.99918 23.4207 6.75275 22.4984 6.75275ZM29.8091 32.6214H28.122C27.1885 32.6214 26.435 31.8679 26.435 30.9343C26.435 30.0008 27.1885 29.2473 28.122 29.2473H29.8091C30.7314 29.2473 31.4962 30.0008 31.4962 30.9343C31.4962 31.8679 30.7314 32.6214 29.8091 32.6214ZM29.8091 6.75275H28.122C27.1885 6.75275 26.435 5.99918 26.435 5.06566C26.435 4.13214 27.1885 3.37857 28.122 3.37857H29.8091C30.7314 3.37857 31.4962 4.13214 31.4962 5.06566C31.4962 5.99918 30.7314 6.75275 29.8091 6.75275Z" fill="#261E39"/>
</g>
<defs>
<clipPath id="clip0_1_7658">
<rect width="36" height="36" fill="white"/>
</clipPath>
</defs>
</svg>
