<svg width="36" height="36" viewBox="0 0 36 36" fill="none" xmlns="http://www.w3.org/2000/svg">
<g clip-path="url(#clip0_1_7650)">
<path d="M9.3743 27.7967C6.97291 27.7967 4.83684 26.2591 4.06118 23.97L4.00872 23.7975C3.82579 23.1913 3.74916 22.6816 3.74916 22.1715V11.9441L0.110127 24.0914C-0.357902 25.8781 0.708622 27.7305 2.49806 28.224L25.6932 34.4359C25.9827 34.5108 26.2722 34.5468 26.5573 34.5468C28.0512 34.5468 29.4163 33.5553 29.7989 32.0941L31.1503 27.7967H9.3743Z" fill="#261E39"/>
<path d="M13.4992 12.0465C15.1538 12.0465 16.4991 10.7009 16.4991 9.04631C16.4991 7.39173 15.1538 6.04614 13.4992 6.04614C11.8446 6.04614 10.499 7.39173 10.499 9.04631C10.499 10.7009 11.8446 12.0465 13.4992 12.0465Z" fill="#261E39"/>
<path d="M32.2496 1.5459H9.74902C7.68217 1.5459 5.99902 3.22905 5.99902 5.29617V21.7964C5.99902 23.8635 7.68217 25.5467 9.74902 25.5467H32.2496C34.3167 25.5467 35.9999 23.8635 35.9999 21.7964V5.29617C35.9999 3.22905 34.3167 1.5459 32.2496 1.5459ZM9.74902 4.54606H32.2496C32.6638 4.54606 32.9997 4.88198 32.9997 5.29617V15.9449L28.2612 10.4157C27.7585 9.82622 27.0309 9.51118 26.2495 9.49333C25.4725 9.49772 24.7435 9.8427 24.2456 10.4398L18.6743 17.1268L16.8593 15.3162C15.8334 14.2904 14.1637 14.2904 13.1392 15.3162L8.99919 19.4549V5.29617C8.99919 4.88198 9.3351 4.54606 9.74902 4.54606Z" fill="#261E39"/>
</g>
<defs>
<clipPath id="clip0_1_7650">
<rect width="36" height="36" fill="white"/>
</clipPath>
</defs>
</svg>
