<svg width="80" height="80" viewBox="0 0 80 80" fill="none" xmlns="http://www.w3.org/2000/svg">
<path d="M19 38.5C18.1716 38.5 17.5 39.1716 17.5 40C17.5 40.8284 18.1716 41.5 19 41.5L19 38.5ZM62.0607 41.0607C62.6464 40.4749 62.6464 39.5251 62.0607 38.9393L52.5147 29.3934C51.9289 28.8076 50.9792 28.8076 50.3934 29.3934C49.8076 29.9792 49.8076 30.9289 50.3934 31.5147L58.8787 40L50.3934 48.4853C49.8076 49.0711 49.8076 50.0208 50.3934 50.6066C50.9792 51.1924 51.9289 51.1924 52.5147 50.6066L62.0607 41.0607ZM19 41.5L61 41.5L61 38.5L19 38.5L19 41.5Z" fill="#05000F" fill-opacity="0.7"/>
</svg>
