<svg width="80" height="80" viewBox="0 0 80 80" fill="none" xmlns="http://www.w3.org/2000/svg">
<path d="M61 38.5C61.8284 38.5 62.5 39.1716 62.5 40C62.5 40.8284 61.8284 41.5 61 41.5L61 38.5ZM17.9393 41.0607C17.3536 40.4749 17.3536 39.5251 17.9393 38.9393L27.4853 29.3934C28.0711 28.8076 29.0208 28.8076 29.6066 29.3934C30.1924 29.9792 30.1924 30.9289 29.6066 31.5147L21.1213 40L29.6066 48.4853C30.1924 49.0711 30.1924 50.0208 29.6066 50.6066C29.0208 51.1924 28.0711 51.1924 27.4853 50.6066L17.9393 41.0607ZM61 41.5L19 41.5L19 38.5L61 38.5L61 41.5Z" fill="#05000F" fill-opacity="0.7"/>
</svg>
