<svg width="178" height="185" viewBox="0 0 178 185" fill="none" xmlns="http://www.w3.org/2000/svg">
<g clip-path="url(#clip0_5_3745)">
<path d="M52.996 10.5576H48.1953V15.5238H52.996V10.5576Z" fill="white"/>
<path d="M67.3974 10.5579H62.5967V15.5241H67.3974V10.5579Z" fill="white"/>
<path d="M72.1981 10.5576H67.3975V15.5238H72.1981V10.5576Z" fill="white"/>
<path d="M76.9989 10.5579H72.1982V15.5241H76.9989V10.5579Z" fill="white"/>
<path d="M86.5995 10.5576H81.7988V15.5238H86.5995V10.5576Z" fill="white"/>
<path d="M101.002 10.5579H96.2012V15.5241H101.002V10.5579Z" fill="white"/>
<path d="M125.006 10.5576H120.205V15.5238H125.006V10.5576Z" fill="white"/>
<path d="M57.7968 15.5239H52.9961V20.4901H57.7968V15.5239Z" fill="white"/>
<path d="M62.5966 15.5239H57.7959V20.4901H62.5966V15.5239Z" fill="white"/>
<path d="M67.3974 15.5239H62.5967V20.4901H67.3974V15.5239Z" fill="white"/>
<path d="M72.1981 15.5239H67.3975V20.4901H72.1981V15.5239Z" fill="white"/>
<path d="M76.9989 15.5239H72.1982V20.4901H76.9989V15.5239Z" fill="white"/>
<path d="M81.7997 15.5239H76.999V20.4901H81.7997V15.5239Z" fill="white"/>
<path d="M101.002 15.5239H96.2012V20.4901H101.002V15.5239Z" fill="white"/>
<path d="M105.803 15.5239H101.002V20.4901H105.803V15.5239Z" fill="white"/>
<path d="M62.5966 20.4905H57.7959V25.4567H62.5966V20.4905Z" fill="white"/>
<path d="M72.1981 20.4902H67.3975V25.4565H72.1981V20.4902Z" fill="white"/>
<path d="M81.7997 20.4905H76.999V25.4567H81.7997V20.4905Z" fill="white"/>
<path d="M86.5995 20.4902H81.7988V25.4565H86.5995V20.4902Z" fill="white"/>
<path d="M91.4003 20.4902H86.5996V25.4565H91.4003V20.4902Z" fill="white"/>
<path d="M96.2011 20.4905H91.4004V25.4567H96.2011V20.4905Z" fill="white"/>
<path d="M101.002 20.4905H96.2012V25.4567H101.002V20.4905Z" fill="white"/>
<path d="M105.803 20.4902H101.002V25.4565H105.803V20.4902Z" fill="white"/>
<path d="M115.404 20.4905H110.604V25.4567H115.404V20.4905Z" fill="white"/>
<path d="M125.006 20.4902H120.205V25.4565H125.006V20.4902Z" fill="white"/>
<path d="M52.996 25.4561H48.1953V30.4223H52.996V25.4561Z" fill="white"/>
<path d="M57.7968 25.4565H52.9961V30.4228H57.7968V25.4565Z" fill="white"/>
<path d="M67.3974 25.4565H62.5967V30.4228H67.3974V25.4565Z" fill="white"/>
<path d="M72.1981 25.4565H67.3975V30.4228H72.1981V25.4565Z" fill="white"/>
<path d="M91.4003 25.4565H86.5996V30.4228H91.4003V25.4565Z" fill="white"/>
<path d="M96.2011 25.4565H91.4004V30.4228H96.2011V25.4565Z" fill="white"/>
<path d="M115.404 25.4565H110.604V30.4228H115.404V25.4565Z" fill="white"/>
<path d="M120.205 25.4565H115.404V30.4228H120.205V25.4565Z" fill="white"/>
<path d="M52.996 30.4224H48.1953V35.3886H52.996V30.4224Z" fill="white"/>
<path d="M57.7968 30.4229H52.9961V35.3891H57.7968V30.4229Z" fill="white"/>
<path d="M91.4003 30.4229H86.5996V35.3891H91.4003V30.4229Z" fill="white"/>
<path d="M96.2011 30.4226H91.4004V35.3888H96.2011V30.4226Z" fill="white"/>
<path d="M105.803 30.4229H101.002V35.3891H105.803V30.4229Z" fill="white"/>
<path d="M115.404 30.4226H110.604V35.3888H115.404V30.4226Z" fill="white"/>
<path d="M120.205 30.4226H115.404V35.3888H120.205V30.4226Z" fill="white"/>
<path d="M52.996 35.3892H48.1953V40.3554H52.996V35.3892Z" fill="white"/>
<path d="M57.7968 35.3887H52.9961V40.3549H57.7968V35.3887Z" fill="white"/>
<path d="M62.5976 35.3887H57.7969V40.3549H62.5976V35.3887Z" fill="white"/>
<path d="M72.1981 35.3887H67.3975V40.3549H72.1981V35.3887Z" fill="white"/>
<path d="M86.5995 35.3887H81.7988V40.3549H86.5995V35.3887Z" fill="white"/>
<path d="M96.2011 35.3887H91.4004V40.3549H96.2011V35.3887Z" fill="white"/>
<path d="M110.603 35.3887H105.803V40.3549H110.603V35.3887Z" fill="white"/>
<path d="M115.404 35.3887H110.604V40.3549H115.404V35.3887Z" fill="white"/>
<path d="M120.205 35.3887H115.404V40.3549H120.205V35.3887Z" fill="white"/>
<path d="M125.006 35.3887H120.205V40.3549H125.006V35.3887Z" fill="white"/>
<path d="M129.807 35.3887H125.006V40.3549H129.807V35.3887Z" fill="white"/>
<path d="M52.996 40.355H48.1953V45.3212H52.996V40.355Z" fill="white"/>
<path d="M62.5966 40.3552H57.7959V45.3214H62.5966V40.3552Z" fill="white"/>
<path d="M72.1981 40.3555H67.3975V45.3217H72.1981V40.3555Z" fill="white"/>
<path d="M81.7997 40.3552H76.999V45.3214H81.7997V40.3552Z" fill="white"/>
<path d="M91.4003 40.3555H86.5996V45.3217H91.4003V40.3555Z" fill="white"/>
<path d="M101.002 40.3552H96.2012V45.3214H101.002V40.3552Z" fill="white"/>
<path d="M110.603 40.3552H105.803V45.3214H110.603V40.3552Z" fill="white"/>
<path d="M120.205 40.3552H115.404V45.3214H120.205V40.3552Z" fill="white"/>
<path d="M129.806 40.3552H125.005V45.3214H129.806V40.3552Z" fill="white"/>
<path d="M52.996 45.3213H48.1953V50.2875H52.996V45.3213Z" fill="white"/>
<path d="M67.3974 45.3213H62.5967V50.2875H67.3974V45.3213Z" fill="white"/>
<path d="M81.7997 45.3213H76.999V50.2875H81.7997V45.3213Z" fill="white"/>
<path d="M96.2011 45.3213H91.4004V50.2875H96.2011V45.3213Z" fill="white"/>
<path d="M101.002 45.3213H96.2012V50.2875H101.002V45.3213Z" fill="white"/>
<path d="M105.803 45.3213H101.002V50.2875H105.803V45.3213Z" fill="white"/>
<path d="M110.603 45.3213H105.803V50.2875H110.603V45.3213Z" fill="white"/>
<path d="M115.404 45.3213H110.604V50.2875H115.404V45.3213Z" fill="white"/>
<path d="M129.806 45.3213H125.005V50.2875H129.806V45.3213Z" fill="white"/>
<path d="M14.5897 50.2876H9.78906V55.2538H14.5897V50.2876Z" fill="white"/>
<path d="M33.7929 50.2876H28.9922V55.2538H33.7929V50.2876Z" fill="white"/>
<path d="M43.3944 50.2876H38.5938V55.2538H43.3944V50.2876Z" fill="white"/>
<path d="M48.1942 50.2876H43.3936V55.2538H48.1942V50.2876Z" fill="white"/>
<path d="M52.996 50.2881H48.1953V55.2543H52.996V50.2881Z" fill="white"/>
<path d="M62.5976 50.2876H57.7969V55.2538H62.5976V50.2876Z" fill="white"/>
<path d="M72.1981 50.2876H67.3975V55.2538H72.1981V50.2876Z" fill="white"/>
<path d="M86.5995 50.2876H81.7988V55.2538H86.5995V50.2876Z" fill="white"/>
<path d="M96.2011 50.2876H91.4004V55.2538H96.2011V50.2876Z" fill="white"/>
<path d="M110.603 50.2876H105.803V55.2538H110.603V50.2876Z" fill="white"/>
<path d="M115.404 50.2876H110.604V55.2538H115.404V50.2876Z" fill="white"/>
<path d="M120.205 50.2876H115.404V55.2538H120.205V50.2876Z" fill="white"/>
<path d="M125.006 50.2876H120.205V55.2538H125.006V50.2876Z" fill="white"/>
<path d="M134.607 50.2876H129.807V55.2538H134.607V50.2876Z" fill="white"/>
<path d="M139.408 50.2876H134.607V55.2538H139.408V50.2876Z" fill="white"/>
<path d="M144.208 50.2876H139.407V55.2538H144.208V50.2876Z" fill="white"/>
<path d="M149.009 50.2876H144.208V55.2538H149.009V50.2876Z" fill="white"/>
<path d="M153.809 50.2876H149.009V55.2538H153.809V50.2876Z" fill="white"/>
<path d="M168.211 50.2876H163.41V55.2538H168.211V50.2876Z" fill="white"/>
<path d="M19.3905 55.2539H14.5898V60.2201H19.3905V55.2539Z" fill="white"/>
<path d="M38.5936 55.2539H33.793V60.2201H38.5936V55.2539Z" fill="white"/>
<path d="M48.1942 55.2539H43.3936V60.2201H48.1942V55.2539Z" fill="white"/>
<path d="M62.5976 55.2539H57.7969V60.2201H62.5976V55.2539Z" fill="white"/>
<path d="M67.3964 55.2539H62.5957V60.2201H67.3964V55.2539Z" fill="white"/>
<path d="M86.5995 55.2539H81.7988V60.2201H86.5995V55.2539Z" fill="white"/>
<path d="M91.4003 55.2539H86.5996V60.2201H91.4003V55.2539Z" fill="white"/>
<path d="M96.2011 55.2539H91.4004V60.2201H96.2011V55.2539Z" fill="white"/>
<path d="M101.002 55.2539H96.2012V60.2201H101.002V55.2539Z" fill="white"/>
<path d="M115.404 55.2539H110.604V60.2201H115.404V55.2539Z" fill="white"/>
<path d="M120.205 55.2539H115.404V60.2201H120.205V55.2539Z" fill="white"/>
<path d="M125.006 55.2539H120.205V60.2201H125.006V55.2539Z" fill="white"/>
<path d="M134.607 55.2539H129.807V60.2201H134.607V55.2539Z" fill="white"/>
<path d="M153.809 55.2539H149.009V60.2201H153.809V55.2539Z" fill="white"/>
<path d="M158.61 55.2539H153.81V60.2201H158.61V55.2539Z" fill="white"/>
<path d="M168.211 55.2539H163.41V60.2201H168.211V55.2539Z" fill="white"/>
<path d="M14.5897 60.22H9.78906V65.1862H14.5897V60.22Z" fill="white"/>
<path d="M24.1913 60.2197H19.3906V65.1859H24.1913V60.2197Z" fill="white"/>
<path d="M33.7929 60.22H28.9922V65.1862H33.7929V60.22Z" fill="white"/>
<path d="M38.5936 60.2197H33.793V65.1859H38.5936V60.2197Z" fill="white"/>
<path d="M43.3944 60.2197H38.5938V65.1859H43.3944V60.2197Z" fill="white"/>
<path d="M48.1942 60.22H43.3936V65.1862H48.1942V60.22Z" fill="white"/>
<path d="M52.996 60.2197H48.1953V65.1859H52.996V60.2197Z" fill="white"/>
<path d="M76.9989 60.22H72.1982V65.1862H76.9989V60.22Z" fill="white"/>
<path d="M81.7997 60.22H76.999V65.1862H81.7997V60.22Z" fill="white"/>
<path d="M86.5995 60.2197H81.7988V65.1859H86.5995V60.2197Z" fill="white"/>
<path d="M101.002 60.22H96.2012V65.1862H101.002V60.22Z" fill="white"/>
<path d="M125.006 60.2197H120.205V65.1859H125.006V60.2197Z" fill="white"/>
<path d="M134.606 60.22H129.806V65.1862H134.606V60.22Z" fill="white"/>
<path d="M153.809 60.22H149.009V65.1862H153.809V60.22Z" fill="white"/>
<path d="M163.41 60.22H158.609V65.1862H163.41V60.22Z" fill="white"/>
<path d="M24.1913 65.1865H19.3906V70.1527H24.1913V65.1865Z" fill="white"/>
<path d="M33.7929 65.1865H28.9922V70.1527H33.7929V65.1865Z" fill="white"/>
<path d="M48.1942 65.1865H43.3936V70.1527H48.1942V65.1865Z" fill="white"/>
<path d="M62.5976 65.1865H57.7969V70.1527H62.5976V65.1865Z" fill="white"/>
<path d="M72.1981 65.1865H67.3975V70.1527H72.1981V65.1865Z" fill="white"/>
<path d="M76.9989 65.1865H72.1982V70.1527H76.9989V65.1865Z" fill="white"/>
<path d="M91.4003 65.1865H86.5996V70.1527H91.4003V65.1865Z" fill="white"/>
<path d="M105.803 65.1865H101.002V70.1527H105.803V65.1865Z" fill="white"/>
<path d="M110.603 65.1865H105.803V70.1527H110.603V65.1865Z" fill="white"/>
<path d="M120.205 65.1865H115.404V70.1527H120.205V65.1865Z" fill="white"/>
<path d="M129.807 65.1865H125.006V70.1527H129.807V65.1865Z" fill="white"/>
<path d="M134.607 65.1865H129.807V70.1527H134.607V65.1865Z" fill="white"/>
<path d="M139.408 65.1865H134.607V70.1527H139.408V65.1865Z" fill="white"/>
<path d="M14.5897 70.1523H9.78906V75.1186H14.5897V70.1523Z" fill="white"/>
<path d="M24.1913 70.1523H19.3906V75.1186H24.1913V70.1523Z" fill="white"/>
<path d="M28.9921 70.1523H24.1914V75.1186H28.9921V70.1523Z" fill="white"/>
<path d="M43.3944 70.1523H38.5938V75.1186H43.3944V70.1523Z" fill="white"/>
<path d="M52.996 70.1523H48.1953V75.1186H52.996V70.1523Z" fill="white"/>
<path d="M62.5976 70.1523H57.7969V75.1186H62.5976V70.1523Z" fill="white"/>
<path d="M72.1981 70.1523H67.3975V75.1186H72.1981V70.1523Z" fill="white"/>
<path d="M76.9989 70.1523H72.1982V75.1186H76.9989V70.1523Z" fill="white"/>
<path d="M91.4003 70.1523H86.5996V75.1186H91.4003V70.1523Z" fill="white"/>
<path d="M120.205 70.1523H115.404V75.1186H120.205V70.1523Z" fill="white"/>
<path d="M125.006 70.1523H120.205V75.1186H125.006V70.1523Z" fill="white"/>
<path d="M129.807 70.1523H125.006V75.1186H129.807V70.1523Z" fill="white"/>
<path d="M139.408 70.1523H134.607V75.1186H139.408V70.1523Z" fill="white"/>
<path d="M144.208 70.1523H139.407V75.1186H144.208V70.1523Z" fill="white"/>
<path d="M153.809 70.1523H149.009V75.1186H153.809V70.1523Z" fill="white"/>
<path d="M168.211 70.1523H163.41V75.1186H168.211V70.1523Z" fill="white"/>
<path d="M14.5897 75.1187H9.78906V80.0849H14.5897V75.1187Z" fill="white"/>
<path d="M24.1913 75.1187H19.3906V80.0849H24.1913V75.1187Z" fill="white"/>
<path d="M28.9921 75.1187H24.1914V80.0849H28.9921V75.1187Z" fill="white"/>
<path d="M33.7929 75.1187H28.9922V80.0849H33.7929V75.1187Z" fill="white"/>
<path d="M38.5936 75.1187H33.793V80.0849H38.5936V75.1187Z" fill="white"/>
<path d="M48.1942 75.1187H43.3936V80.0849H48.1942V75.1187Z" fill="white"/>
<path d="M62.5966 75.1187H57.7959V80.0849H62.5966V75.1187Z" fill="white"/>
<path d="M67.3974 75.1187H62.5967V80.0849H67.3974V75.1187Z" fill="white"/>
<path d="M81.7997 75.1187H76.999V80.0849H81.7997V75.1187Z" fill="white"/>
<path d="M96.2011 75.1187H91.4004V80.0849H96.2011V75.1187Z" fill="white"/>
<path d="M101.002 75.1187H96.2012V80.0849H101.002V75.1187Z" fill="white"/>
<path d="M105.803 75.1187H101.002V80.0849H105.803V75.1187Z" fill="white"/>
<path d="M110.603 75.1187H105.803V80.0849H110.603V75.1187Z" fill="white"/>
<path d="M129.806 75.1187H125.005V80.0849H129.806V75.1187Z" fill="white"/>
<path d="M134.606 75.1187H129.806V80.0849H134.606V75.1187Z" fill="white"/>
<path d="M144.208 75.1187H139.407V80.0849H144.208V75.1187Z" fill="white"/>
<path d="M158.61 75.1187H153.81V80.0849H158.61V75.1187Z" fill="white"/>
<path d="M24.1913 80.085H19.3906V85.0512H24.1913V80.085Z" fill="white"/>
<path d="M33.7929 80.085H28.9922V85.0512H33.7929V80.085Z" fill="white"/>
<path d="M38.5936 80.085H33.793V85.0512H38.5936V80.085Z" fill="white"/>
<path d="M43.3944 80.085H38.5938V85.0512H43.3944V80.085Z" fill="white"/>
<path d="M62.5976 80.085H57.7969V85.0512H62.5976V80.085Z" fill="white"/>
<path d="M67.3964 80.085H62.5957V85.0512H67.3964V80.085Z" fill="white"/>
<path d="M72.1981 80.085H67.3975V85.0512H72.1981V80.085Z" fill="white"/>
<path d="M81.7997 80.085H76.999V85.0512H81.7997V80.085Z" fill="white"/>
<path d="M86.5995 80.085H81.7988V85.0512H86.5995V80.085Z" fill="white"/>
<path d="M96.2011 80.085H91.4004V85.0512H96.2011V80.085Z" fill="white"/>
<path d="M101.002 80.085H96.2012V85.0512H101.002V80.085Z" fill="white"/>
<path d="M110.603 80.085H105.803V85.0512H110.603V80.085Z" fill="white"/>
<path d="M115.404 80.085H110.604V85.0512H115.404V80.085Z" fill="white"/>
<path d="M125.006 80.085H120.205V85.0512H125.006V80.085Z" fill="white"/>
<path d="M129.807 80.085H125.006V85.0512H129.807V80.085Z" fill="white"/>
<path d="M134.607 80.085H129.807V85.0512H134.607V80.085Z" fill="white"/>
<path d="M139.408 80.085H134.607V85.0512H139.408V80.085Z" fill="white"/>
<path d="M149.009 80.085H144.208V85.0512H149.009V80.085Z" fill="white"/>
<path d="M163.41 80.085H158.609V85.0512H163.41V80.085Z" fill="white"/>
<path d="M14.5897 85.0508H9.78906V90.017H14.5897V85.0508Z" fill="white"/>
<path d="M19.3905 85.0508H14.5898V90.017H19.3905V85.0508Z" fill="white"/>
<path d="M24.1913 85.0508H19.3906V90.017H24.1913V85.0508Z" fill="white"/>
<path d="M28.9921 85.0508H24.1914V90.017H28.9921V85.0508Z" fill="white"/>
<path d="M33.7929 85.0508H28.9922V90.017H33.7929V85.0508Z" fill="white"/>
<path d="M48.1942 85.0508H43.3936V90.017H48.1942V85.0508Z" fill="white"/>
<path d="M62.5976 85.0508H57.7969V90.017H62.5976V85.0508Z" fill="white"/>
<path d="M67.3964 85.0508H62.5957V90.017H67.3964V85.0508Z" fill="white"/>
<path d="M76.9989 85.0508H72.1982V90.017H76.9989V85.0508Z" fill="white"/>
<path d="M81.7997 85.0508H76.999V90.017H81.7997V85.0508Z" fill="white"/>
<path d="M86.5995 85.0508H81.7988V90.017H86.5995V85.0508Z" fill="white"/>
<path d="M91.4003 85.0508H86.5996V90.017H91.4003V85.0508Z" fill="white"/>
<path d="M96.2011 85.0508H91.4004V90.017H96.2011V85.0508Z" fill="white"/>
<path d="M101.002 85.0508H96.2012V90.017H101.002V85.0508Z" fill="white"/>
<path d="M115.404 85.0508H110.604V90.017H115.404V85.0508Z" fill="white"/>
<path d="M125.006 85.0508H120.205V90.017H125.006V85.0508Z" fill="white"/>
<path d="M134.607 85.0508H129.807V90.017H134.607V85.0508Z" fill="white"/>
<path d="M139.408 85.0508H134.607V90.017H139.408V85.0508Z" fill="white"/>
<path d="M144.208 85.0508H139.407V90.017H144.208V85.0508Z" fill="white"/>
<path d="M14.5897 90.0171H9.78906V94.9833H14.5897V90.0171Z" fill="white"/>
<path d="M19.3905 90.0171H14.5898V94.9833H19.3905V90.0171Z" fill="white"/>
<path d="M28.9921 90.0171H24.1914V94.9833H28.9921V90.0171Z" fill="white"/>
<path d="M33.7929 90.0171H28.9922V94.9833H33.7929V90.0171Z" fill="white"/>
<path d="M38.5936 90.0171H33.793V94.9833H38.5936V90.0171Z" fill="white"/>
<path d="M43.3944 90.0171H38.5938V94.9833H43.3944V90.0171Z" fill="white"/>
<path d="M52.996 90.0176H48.1953V94.9838H52.996V90.0176Z" fill="white"/>
<path d="M57.7968 90.0171H52.9961V94.9833H57.7968V90.0171Z" fill="white"/>
<path d="M72.1981 90.0171H67.3975V94.9833H72.1981V90.0171Z" fill="white"/>
<path d="M96.2011 90.0171H91.4004V94.9833H96.2011V90.0171Z" fill="white"/>
<path d="M101.002 90.0171H96.2012V94.9833H101.002V90.0171Z" fill="white"/>
<path d="M105.803 90.0171H101.002V94.9833H105.803V90.0171Z" fill="white"/>
<path d="M110.603 90.0171H105.803V94.9833H110.603V90.0171Z" fill="white"/>
<path d="M115.404 90.0171H110.604V94.9833H115.404V90.0171Z" fill="white"/>
<path d="M120.205 90.0171H115.404V94.9833H120.205V90.0171Z" fill="white"/>
<path d="M129.807 90.0171H125.006V94.9833H129.807V90.0171Z" fill="white"/>
<path d="M139.408 90.0171H134.607V94.9833H139.408V90.0171Z" fill="white"/>
<path d="M149.009 90.0171H144.208V94.9833H149.009V90.0171Z" fill="white"/>
<path d="M153.809 90.0171H149.009V94.9833H153.809V90.0171Z" fill="white"/>
<path d="M163.41 90.0171H158.609V94.9833H163.41V90.0171Z" fill="white"/>
<path d="M14.5897 94.9834H9.78906V99.9496H14.5897V94.9834Z" fill="white"/>
<path d="M19.3905 94.9834H14.5898V99.9496H19.3905V94.9834Z" fill="white"/>
<path d="M33.7929 94.9834H28.9922V99.9496H33.7929V94.9834Z" fill="white"/>
<path d="M38.5936 94.9834H33.793V99.9496H38.5936V94.9834Z" fill="white"/>
<path d="M48.1942 94.9834H43.3936V99.9496H48.1942V94.9834Z" fill="white"/>
<path d="M52.996 94.9834H48.1953V99.9496H52.996V94.9834Z" fill="white"/>
<path d="M57.7968 94.9834H52.9961V99.9496H57.7968V94.9834Z" fill="white"/>
<path d="M62.5966 94.9834H57.7959V99.9496H62.5966V94.9834Z" fill="white"/>
<path d="M86.5995 94.9834H81.7988V99.9496H86.5995V94.9834Z" fill="white"/>
<path d="M91.4003 94.9834H86.5996V99.9496H91.4003V94.9834Z" fill="white"/>
<path d="M101.002 94.9834H96.2012V99.9496H101.002V94.9834Z" fill="white"/>
<path d="M110.603 94.9834H105.803V99.9496H110.603V94.9834Z" fill="white"/>
<path d="M120.205 94.9834H115.404V99.9496H120.205V94.9834Z" fill="white"/>
<path d="M125.006 94.9834H120.205V99.9496H125.006V94.9834Z" fill="white"/>
<path d="M129.806 94.9834H125.005V99.9496H129.806V94.9834Z" fill="white"/>
<path d="M153.809 94.9834H149.009V99.9496H153.809V94.9834Z" fill="white"/>
<path d="M158.61 94.9834H153.81V99.9496H158.61V94.9834Z" fill="white"/>
<path d="M163.41 94.9834H158.609V99.9496H163.41V94.9834Z" fill="white"/>
<path d="M14.5897 99.9497H9.78906V104.916H14.5897V99.9497Z" fill="white"/>
<path d="M24.1913 99.9497H19.3906V104.916H24.1913V99.9497Z" fill="white"/>
<path d="M28.9921 99.9497H24.1914V104.916H28.9921V99.9497Z" fill="white"/>
<path d="M33.7929 99.9497H28.9922V104.916H33.7929V99.9497Z" fill="white"/>
<path d="M43.3944 99.9497H38.5938V104.916H43.3944V99.9497Z" fill="white"/>
<path d="M48.1942 99.9497H43.3936V104.916H48.1942V99.9497Z" fill="white"/>
<path d="M62.5976 99.9497H57.7969V104.916H62.5976V99.9497Z" fill="white"/>
<path d="M72.1981 99.9497H67.3975V104.916H72.1981V99.9497Z" fill="white"/>
<path d="M76.9989 99.9497H72.1982V104.916H76.9989V99.9497Z" fill="white"/>
<path d="M86.5995 99.9497H81.7988V104.916H86.5995V99.9497Z" fill="white"/>
<path d="M91.4003 99.9497H86.5996V104.916H91.4003V99.9497Z" fill="white"/>
<path d="M96.2011 99.9497H91.4004V104.916H96.2011V99.9497Z" fill="white"/>
<path d="M110.603 99.9497H105.803V104.916H110.603V99.9497Z" fill="white"/>
<path d="M115.404 99.9497H110.604V104.916H115.404V99.9497Z" fill="white"/>
<path d="M120.205 99.9497H115.404V104.916H120.205V99.9497Z" fill="white"/>
<path d="M125.006 99.9497H120.205V104.916H125.006V99.9497Z" fill="white"/>
<path d="M129.807 99.9497H125.006V104.916H129.807V99.9497Z" fill="white"/>
<path d="M134.607 99.9497H129.807V104.916H134.607V99.9497Z" fill="white"/>
<path d="M144.208 99.9497H139.407V104.916H144.208V99.9497Z" fill="white"/>
<path d="M153.809 99.9497H149.009V104.916H153.809V99.9497Z" fill="white"/>
<path d="M163.41 99.9497H158.609V104.916H163.41V99.9497Z" fill="white"/>
<path d="M19.3905 104.916H14.5898V109.882H19.3905V104.916Z" fill="white"/>
<path d="M24.1913 104.916H19.3906V109.882H24.1913V104.916Z" fill="white"/>
<path d="M33.7929 104.916H28.9922V109.882H33.7929V104.916Z" fill="white"/>
<path d="M48.1942 104.916H43.3936V109.882H48.1942V104.916Z" fill="white"/>
<path d="M62.5976 104.916H57.7969V109.882H62.5976V104.916Z" fill="white"/>
<path d="M72.1981 104.916H67.3975V109.882H72.1981V104.916Z" fill="white"/>
<path d="M76.9989 104.916H72.1982V109.882H76.9989V104.916Z" fill="white"/>
<path d="M86.5995 104.916H81.7988V109.882H86.5995V104.916Z" fill="white"/>
<path d="M96.2011 104.916H91.4004V109.882H96.2011V104.916Z" fill="white"/>
<path d="M101.002 104.916H96.2012V109.882H101.002V104.916Z" fill="white"/>
<path d="M110.603 104.916H105.803V109.882H110.603V104.916Z" fill="white"/>
<path d="M115.404 104.916H110.604V109.882H115.404V104.916Z" fill="white"/>
<path d="M129.807 104.916H125.006V109.882H129.807V104.916Z" fill="white"/>
<path d="M134.607 104.916H129.807V109.882H134.607V104.916Z" fill="white"/>
<path d="M139.408 104.916H134.607V109.882H139.408V104.916Z" fill="white"/>
<path d="M144.208 104.916H139.407V109.882H144.208V104.916Z" fill="white"/>
<path d="M163.41 104.916H158.609V109.882H163.41V104.916Z" fill="white"/>
<path d="M14.5897 109.882H9.78906V114.849H14.5897V109.882Z" fill="white"/>
<path d="M24.1913 109.882H19.3906V114.849H24.1913V109.882Z" fill="white"/>
<path d="M38.5936 109.882H33.793V114.849H38.5936V109.882Z" fill="white"/>
<path d="M43.3944 109.882H38.5938V114.849H43.3944V109.882Z" fill="white"/>
<path d="M48.1942 109.882H43.3936V114.849H48.1942V109.882Z" fill="white"/>
<path d="M57.7968 109.882H52.9961V114.849H57.7968V109.882Z" fill="white"/>
<path d="M67.3964 109.882H62.5957V114.849H67.3964V109.882Z" fill="white"/>
<path d="M76.9989 109.882H72.1982V114.849H76.9989V109.882Z" fill="white"/>
<path d="M81.7997 109.882H76.999V114.849H81.7997V109.882Z" fill="white"/>
<path d="M101.002 109.882H96.2012V114.849H101.002V109.882Z" fill="white"/>
<path d="M105.803 109.882H101.002V114.849H105.803V109.882Z" fill="white"/>
<path d="M110.603 109.882H105.803V114.849H110.603V109.882Z" fill="white"/>
<path d="M139.408 109.882H134.607V114.849H139.408V109.882Z" fill="white"/>
<path d="M144.208 109.882H139.407V114.849H144.208V109.882Z" fill="white"/>
<path d="M149.009 109.882H144.208V114.849H149.009V109.882Z" fill="white"/>
<path d="M153.809 109.882H149.009V114.849H153.809V109.882Z" fill="white"/>
<path d="M14.5897 114.849H9.78906V119.815H14.5897V114.849Z" fill="white"/>
<path d="M28.9921 114.849H24.1914V119.815H28.9921V114.849Z" fill="white"/>
<path d="M38.5936 114.849H33.793V119.815H38.5936V114.849Z" fill="white"/>
<path d="M72.1981 114.849H67.3975V119.815H72.1981V114.849Z" fill="white"/>
<path d="M91.4003 114.849H86.5996V119.815H91.4003V114.849Z" fill="white"/>
<path d="M96.2011 114.849H91.4004V119.815H96.2011V114.849Z" fill="white"/>
<path d="M105.803 114.849H101.002V119.815H105.803V114.849Z" fill="white"/>
<path d="M120.205 114.849H115.404V119.815H120.205V114.849Z" fill="white"/>
<path d="M139.408 114.849H134.607V119.815H139.408V114.849Z" fill="white"/>
<path d="M153.809 114.849H149.009V119.815H153.809V114.849Z" fill="white"/>
<path d="M158.61 114.849H153.81V119.815H158.61V114.849Z" fill="white"/>
<path d="M163.41 114.849H158.609V119.815H163.41V114.849Z" fill="white"/>
<path d="M33.7929 119.814H28.9922V124.781H33.7929V119.814Z" fill="white"/>
<path d="M38.5936 119.814H33.793V124.781H38.5936V119.814Z" fill="white"/>
<path d="M43.3944 119.814H38.5938V124.781H43.3944V119.814Z" fill="white"/>
<path d="M48.1942 119.814H43.3936V124.781H48.1942V119.814Z" fill="white"/>
<path d="M67.3964 119.814H62.5957V124.781H67.3964V119.814Z" fill="white"/>
<path d="M72.1981 119.814H67.3975V124.781H72.1981V119.814Z" fill="white"/>
<path d="M81.7997 119.814H76.999V124.781H81.7997V119.814Z" fill="white"/>
<path d="M91.4003 119.814H86.5996V124.781H91.4003V119.814Z" fill="white"/>
<path d="M101.002 119.814H96.2012V124.781H101.002V119.814Z" fill="white"/>
<path d="M105.803 119.814H101.002V124.781H105.803V119.814Z" fill="white"/>
<path d="M115.404 119.814H110.604V124.781H115.404V119.814Z" fill="white"/>
<path d="M125.006 119.814H120.205V124.781H125.006V119.814Z" fill="white"/>
<path d="M129.807 119.814H125.006V124.781H129.807V119.814Z" fill="white"/>
<path d="M134.607 119.814H129.807V124.781H134.607V119.814Z" fill="white"/>
<path d="M158.61 119.814H153.81V124.781H158.61V119.814Z" fill="white"/>
<path d="M163.41 119.814H158.609V124.781H163.41V119.814Z" fill="white"/>
<path d="M28.9921 124.78H24.1914V129.746H28.9921V124.78Z" fill="white"/>
<path d="M33.7929 124.78H28.9922V129.746H33.7929V124.78Z" fill="white"/>
<path d="M38.5936 124.78H33.793V129.746H38.5936V124.78Z" fill="white"/>
<path d="M48.1942 124.78H43.3936V129.746H48.1942V124.78Z" fill="white"/>
<path d="M52.996 124.781H48.1953V129.747H52.996V124.781Z" fill="white"/>
<path d="M62.5976 124.78H57.7969V129.746H62.5976V124.78Z" fill="white"/>
<path d="M76.9989 124.78H72.1982V129.746H76.9989V124.78Z" fill="white"/>
<path d="M96.2011 124.78H91.4004V129.746H96.2011V124.78Z" fill="white"/>
<path d="M101.002 124.78H96.2012V129.746H101.002V124.78Z" fill="white"/>
<path d="M105.803 124.78H101.002V129.746H105.803V124.78Z" fill="white"/>
<path d="M110.603 124.78H105.803V129.746H110.603V124.78Z" fill="white"/>
<path d="M115.404 124.78H110.604V129.746H115.404V124.78Z" fill="white"/>
<path d="M120.205 124.78H115.404V129.746H120.205V124.78Z" fill="white"/>
<path d="M134.607 124.78H129.807V129.746H134.607V124.78Z" fill="white"/>
<path d="M139.408 124.78H134.607V129.746H139.408V124.78Z" fill="white"/>
<path d="M149.009 124.78H144.208V129.746H149.009V124.78Z" fill="white"/>
<path d="M153.809 124.78H149.009V129.746H153.809V124.78Z" fill="white"/>
<path d="M163.41 124.78H158.609V129.746H163.41V124.78Z" fill="white"/>
<path d="M168.211 124.78H163.41V129.746H168.211V124.78Z" fill="white"/>
<path d="M14.5897 129.747H9.78906V134.713H14.5897V129.747Z" fill="white"/>
<path d="M19.3905 129.747H14.5898V134.713H19.3905V129.747Z" fill="white"/>
<path d="M24.1913 129.747H19.3906V134.713H24.1913V129.747Z" fill="white"/>
<path d="M33.7929 129.747H28.9922V134.713H33.7929V129.747Z" fill="white"/>
<path d="M43.3944 129.747H38.5938V134.713H43.3944V129.747Z" fill="white"/>
<path d="M48.1942 129.747H43.3936V134.713H48.1942V129.747Z" fill="white"/>
<path d="M62.5976 129.747H57.7969V134.713H62.5976V129.747Z" fill="white"/>
<path d="M67.3964 129.747H62.5957V134.713H67.3964V129.747Z" fill="white"/>
<path d="M76.9989 129.747H72.1982V134.713H76.9989V129.747Z" fill="white"/>
<path d="M81.7997 129.747H76.999V134.713H81.7997V129.747Z" fill="white"/>
<path d="M86.5995 129.747H81.7988V134.713H86.5995V129.747Z" fill="white"/>
<path d="M91.4003 129.747H86.5996V134.713H91.4003V129.747Z" fill="white"/>
<path d="M96.2011 129.747H91.4004V134.713H96.2011V129.747Z" fill="white"/>
<path d="M110.603 129.747H105.803V134.713H110.603V129.747Z" fill="white"/>
<path d="M115.404 129.747H110.604V134.713H115.404V129.747Z" fill="white"/>
<path d="M120.205 129.747H115.404V134.713H120.205V129.747Z" fill="white"/>
<path d="M129.807 129.747H125.006V134.713H129.807V129.747Z" fill="white"/>
<path d="M134.607 129.747H129.807V134.713H134.607V129.747Z" fill="white"/>
<path d="M139.408 129.747H134.607V134.713H139.408V129.747Z" fill="white"/>
<path d="M144.208 129.747H139.407V134.713H144.208V129.747Z" fill="white"/>
<path d="M149.009 129.747H144.208V134.713H149.009V129.747Z" fill="white"/>
<path d="M153.809 129.747H149.009V134.713H153.809V129.747Z" fill="white"/>
<path d="M163.41 129.747H158.609V134.713H163.41V129.747Z" fill="white"/>
<path d="M52.996 134.713H48.1953V139.679H52.996V134.713Z" fill="white"/>
<path d="M62.5976 134.713H57.7969V139.679H62.5976V134.713Z" fill="white"/>
<path d="M67.3964 134.713H62.5957V139.679H67.3964V134.713Z" fill="white"/>
<path d="M76.9989 134.713H72.1982V139.679H76.9989V134.713Z" fill="white"/>
<path d="M81.7997 134.713H76.999V139.679H81.7997V134.713Z" fill="white"/>
<path d="M86.5995 134.713H81.7988V139.679H86.5995V134.713Z" fill="white"/>
<path d="M91.4003 134.713H86.5996V139.679H91.4003V134.713Z" fill="white"/>
<path d="M96.2011 134.713H91.4004V139.679H96.2011V134.713Z" fill="white"/>
<path d="M115.404 134.713H110.604V139.679H115.404V134.713Z" fill="white"/>
<path d="M120.205 134.713H115.404V139.679H120.205V134.713Z" fill="white"/>
<path d="M125.006 134.713H120.205V139.679H125.006V134.713Z" fill="white"/>
<path d="M129.807 134.713H125.006V139.679H129.807V134.713Z" fill="white"/>
<path d="M149.009 134.713H144.208V139.679H149.009V134.713Z" fill="white"/>
<path d="M158.61 134.713H153.81V139.679H158.61V134.713Z" fill="white"/>
<path d="M52.996 139.68H48.1953V144.646H52.996V139.68Z" fill="white"/>
<path d="M57.7968 139.679H52.9961V144.645H57.7968V139.679Z" fill="white"/>
<path d="M62.5976 139.679H57.7969V144.645H62.5976V139.679Z" fill="white"/>
<path d="M81.7997 139.679H76.999V144.645H81.7997V139.679Z" fill="white"/>
<path d="M86.5995 139.679H81.7988V144.645H86.5995V139.679Z" fill="white"/>
<path d="M101.002 139.679H96.2012V144.645H101.002V139.679Z" fill="white"/>
<path d="M129.807 139.679H125.006V144.645H129.807V139.679Z" fill="white"/>
<path d="M139.408 139.679H134.607V144.645H139.408V139.679Z" fill="white"/>
<path d="M149.009 139.679H144.208V144.645H149.009V139.679Z" fill="white"/>
<path d="M153.809 139.679H149.009V144.645H153.809V139.679Z" fill="white"/>
<path d="M67.3974 144.646H62.5967V149.612H67.3974V144.646Z" fill="white"/>
<path d="M81.7997 144.646H76.999V149.612H81.7997V144.646Z" fill="white"/>
<path d="M86.5995 144.646H81.7988V149.612H86.5995V144.646Z" fill="white"/>
<path d="M91.4003 144.646H86.5996V149.612H91.4003V144.646Z" fill="white"/>
<path d="M105.803 144.646H101.002V149.612H105.803V144.646Z" fill="white"/>
<path d="M120.205 144.646H115.404V149.612H120.205V144.646Z" fill="white"/>
<path d="M129.806 144.646H125.005V149.612H129.806V144.646Z" fill="white"/>
<path d="M149.009 144.646H144.208V149.612H149.009V144.646Z" fill="white"/>
<path d="M168.211 144.646H163.41V149.612H168.211V144.646Z" fill="white"/>
<path d="M52.996 149.612H48.1953V154.578H52.996V149.612Z" fill="white"/>
<path d="M67.3964 149.612H62.5957V154.578H67.3964V149.612Z" fill="white"/>
<path d="M72.1981 149.612H67.3975V154.578H72.1981V149.612Z" fill="white"/>
<path d="M76.9989 149.612H72.1982V154.578H76.9989V149.612Z" fill="white"/>
<path d="M81.7997 149.612H76.999V154.578H81.7997V149.612Z" fill="white"/>
<path d="M91.4003 149.612H86.5996V154.578H91.4003V149.612Z" fill="white"/>
<path d="M105.803 149.612H101.002V154.578H105.803V149.612Z" fill="white"/>
<path d="M120.205 149.612H115.404V154.578H120.205V149.612Z" fill="white"/>
<path d="M129.807 149.612H125.006V154.578H129.807V149.612Z" fill="white"/>
<path d="M134.607 149.612H129.807V154.578H134.607V149.612Z" fill="white"/>
<path d="M139.408 149.612H134.607V154.578H139.408V149.612Z" fill="white"/>
<path d="M144.208 149.612H139.407V154.578H144.208V149.612Z" fill="white"/>
<path d="M149.009 149.612H144.208V154.578H149.009V149.612Z" fill="white"/>
<path d="M153.809 149.612H149.009V154.578H153.809V149.612Z" fill="white"/>
<path d="M168.211 149.612H163.41V154.578H168.211V149.612Z" fill="white"/>
<path d="M57.7968 154.578H52.9961V159.544H57.7968V154.578Z" fill="white"/>
<path d="M62.5976 154.578H57.7969V159.544H62.5976V154.578Z" fill="white"/>
<path d="M72.1981 154.578H67.3975V159.544H72.1981V154.578Z" fill="white"/>
<path d="M76.9989 154.578H72.1982V159.544H76.9989V154.578Z" fill="white"/>
<path d="M101.002 154.578H96.2012V159.544H101.002V154.578Z" fill="white"/>
<path d="M105.803 154.578H101.002V159.544H105.803V154.578Z" fill="white"/>
<path d="M110.603 154.578H105.803V159.544H110.603V154.578Z" fill="white"/>
<path d="M125.006 154.578H120.205V159.544H125.006V154.578Z" fill="white"/>
<path d="M139.408 154.578H134.607V159.544H139.408V154.578Z" fill="white"/>
<path d="M144.208 154.578H139.407V159.544H144.208V154.578Z" fill="white"/>
<path d="M149.009 154.578H144.208V159.544H149.009V154.578Z" fill="white"/>
<path d="M153.809 154.578H149.009V159.544H153.809V154.578Z" fill="white"/>
<path d="M158.61 154.578H153.81V159.544H158.61V154.578Z" fill="white"/>
<path d="M163.41 154.578H158.609V159.544H163.41V154.578Z" fill="white"/>
<path d="M57.7968 159.544H52.9961V164.511H57.7968V159.544Z" fill="white"/>
<path d="M72.1981 159.544H67.3975V164.511H72.1981V159.544Z" fill="white"/>
<path d="M81.7997 159.544H76.999V164.511H81.7997V159.544Z" fill="white"/>
<path d="M86.5995 159.544H81.7988V164.511H86.5995V159.544Z" fill="white"/>
<path d="M101.002 159.544H96.2012V164.511H101.002V159.544Z" fill="white"/>
<path d="M110.603 159.544H105.803V164.511H110.603V159.544Z" fill="white"/>
<path d="M115.404 159.544H110.604V164.511H115.404V159.544Z" fill="white"/>
<path d="M134.606 159.544H129.806V164.511H134.606V159.544Z" fill="white"/>
<path d="M139.407 159.544H134.606V164.511H139.407V159.544Z" fill="white"/>
<path d="M144.208 159.544H139.407V164.511H144.208V159.544Z" fill="white"/>
<path d="M149.009 159.544H144.208V164.511H149.009V159.544Z" fill="white"/>
<path d="M153.809 159.544H149.009V164.511H153.809V159.544Z" fill="white"/>
<path d="M67.3964 164.511H62.5957V169.477H67.3964V164.511Z" fill="white"/>
<path d="M72.1981 164.511H67.3975V169.477H72.1981V164.511Z" fill="white"/>
<path d="M76.9989 164.511H72.1982V169.477H76.9989V164.511Z" fill="white"/>
<path d="M86.5995 164.511H81.7988V169.477H86.5995V164.511Z" fill="white"/>
<path d="M91.4003 164.511H86.5996V169.477H91.4003V164.511Z" fill="white"/>
<path d="M96.2011 164.511H91.4004V169.477H96.2011V164.511Z" fill="white"/>
<path d="M101.002 164.511H96.2012V169.477H101.002V164.511Z" fill="white"/>
<path d="M115.404 164.511H110.604V169.477H115.404V164.511Z" fill="white"/>
<path d="M125.006 164.511H120.205V169.477H125.006V164.511Z" fill="white"/>
<path d="M129.807 164.511H125.006V169.477H129.807V164.511Z" fill="white"/>
<path d="M139.408 164.511H134.607V169.477H139.408V164.511Z" fill="white"/>
<path d="M52.996 169.477H48.1953V174.443H52.996V169.477Z" fill="white"/>
<path d="M62.5976 169.477H57.7969V174.443H62.5976V169.477Z" fill="white"/>
<path d="M96.2011 169.477H91.4004V174.443H96.2011V169.477Z" fill="white"/>
<path d="M105.803 169.477H101.002V174.443H105.803V169.477Z" fill="white"/>
<path d="M110.603 169.477H105.803V174.443H110.603V169.477Z" fill="white"/>
<path d="M115.404 169.477H110.604V174.443H115.404V169.477Z" fill="white"/>
<path d="M120.205 169.477H115.404V174.443H120.205V169.477Z" fill="white"/>
<path d="M125.006 169.477H120.205V174.443H125.006V169.477Z" fill="white"/>
<path d="M129.807 169.477H125.006V174.443H129.807V169.477Z" fill="white"/>
<path d="M134.607 169.477H129.807V174.443H134.607V169.477Z" fill="white"/>
<path d="M139.408 169.477H134.607V174.443H139.408V169.477Z" fill="white"/>
<path d="M153.809 169.477H149.009V174.443H153.809V169.477Z" fill="white"/>
<path d="M168.211 169.477H163.41V174.443H168.211V169.477Z" fill="white"/>
<path d="M38.3531 10.5579H14.8298H9.78906V15.7724V40.1068V45.3214H14.8298H38.3531H43.3938V40.1068V15.7724V10.5579H38.3531ZM38.3531 40.1068H14.8298V15.7724H38.3531V40.1068Z" fill="white"/>
<path d="M163.17 10.5579H139.647H134.606V15.7724V40.1068V45.3214H139.647H163.17H168.211V40.1068V15.7724V10.5579H163.17ZM163.17 40.1068H139.647V15.7724H163.17V40.1068Z" fill="white"/>
<path d="M38.3531 139.679H14.8298H9.78906V144.894V169.228V174.443H14.8298H38.3531H43.3938V169.228V144.894V139.679H38.3531ZM38.3531 169.228H14.8298V144.894H38.3531V169.228Z" fill="white"/>
<path d="M33.7927 20.4902H19.3906V35.3889H33.7927V20.4902Z" fill="white"/>
<path d="M158.61 20.4905H144.208V35.3891H158.61V20.4905Z" fill="white"/>
<path d="M33.7927 149.612H19.3906V164.51H33.7927V149.612Z" fill="white"/>
</g>
<defs>
<clipPath id="clip0_5_3745">
<rect width="177.625" height="183.75" fill="white" transform="translate(0.1875 0.625)"/>
</clipPath>
</defs>
</svg>
