<svg width="89" height="89" viewBox="0 0 89 89" fill="none" xmlns="http://www.w3.org/2000/svg">
<path d="M49.551 65.1145C48.2239 63.7247 46.412 62.9453 44.5108 62.9453H44.3832C40.351 62.9453 37.0972 66.2705 37.0972 70.362C37.0972 74.4535 40.351 77.7787 44.3832 77.7787H44.5108C48.5429 77.7138 51.7457 74.3366 51.6819 70.2321C51.6436 68.3098 50.878 66.4783 49.551 65.1145ZM58.1129 16.38C54.8974 13.0159 50.3166 11.3014 44.5108 11.2754H44.3832C39.7895 11.2754 35.8722 12.5483 32.7333 15.0682C31.2403 16.2631 29.9133 17.653 28.7777 19.1986C27.6803 20.7054 26.7871 22.3679 26.1491 24.1344C25.8684 24.9268 26.2257 25.797 26.9785 26.1347L33.8561 29.2131C34.6473 29.5638 35.566 29.2131 35.9105 28.4078C35.9233 28.3948 35.9233 28.3688 35.936 28.3558C36.574 26.7712 37.5948 25.2125 38.9729 23.7318C40.1979 22.4069 41.9715 21.7704 44.3832 21.7704H44.5108C46.9862 21.7964 48.8364 22.4589 50.1634 23.8097C51.5032 25.1865 52.154 26.8491 52.154 28.9273C52.154 30.6679 51.6436 32.2655 50.5973 33.8112C49.4489 35.5127 47.7518 37.3961 45.5571 39.4094C45.1998 39.7471 44.8425 40.0718 44.5235 40.3966C42.5712 42.3449 41.2187 44.1504 40.4148 45.9039C39.9427 46.93 39.5854 48.2159 39.3302 49.7746C39.0622 51.606 38.9219 53.4504 38.9219 55.3079C38.9091 56.1911 39.5982 56.9055 40.4531 56.9315H40.4914H48.6833C49.5382 56.9315 50.2272 56.2431 50.24 55.3728C50.3038 51.8268 50.6994 50.0993 51.0311 49.268C51.3501 48.4627 52.3837 46.8651 55.4844 43.8256C58.0491 41.3318 59.9631 38.8899 61.1498 36.5778C62.3748 34.1879 63 31.4992 63 28.5896C62.9745 23.8747 61.3412 19.7572 58.1129 16.38Z" fill="#ECE6F9"/>
</svg>
