<svg width="136" height="136" viewBox="0 0 136 136" fill="none" xmlns="http://www.w3.org/2000/svg">
<path d="M33.531 97.0005C22.0045 86.9964 16.2412 81.9943 14.1253 76.0579C12.2677 70.8465 12.2677 65.1535 14.1253 59.9421C16.2412 54.0057 22.0045 49.0036 33.531 38.9995L36.4583 36.4589L38.999 33.5316C49.003 22.0051 54.0051 16.2418 59.9415 14.1258C65.1529 12.2683 70.846 12.2683 76.0573 14.1258C81.9938 16.2418 86.9958 22.0051 96.9999 33.5316L99.5406 36.4589L102.468 38.9995C113.994 49.0036 119.758 54.0057 121.874 59.9421C123.731 65.1535 123.731 70.8465 121.874 76.0579C119.758 81.9943 113.994 86.9964 102.468 97.0005L99.5406 99.5411L96.9999 102.468C86.9958 113.995 81.9938 119.758 76.0573 121.874C70.846 123.732 65.1529 123.732 59.9415 121.874C54.0051 119.758 49.003 113.995 38.999 102.468L36.4583 99.5411L33.531 97.0005Z" fill="white"/>
</svg>
