<svg width="63" height="63" viewBox="0 0 63 63" fill="none" xmlns="http://www.w3.org/2000/svg">
<g clip-path="url(#clip0_18_6770)">
<path d="M0.135742 47.2542C0.135742 55.9099 7.18599 62.9602 15.8417 62.9602L47.2537 62.9602C55.9095 62.9602 62.9597 55.9099 62.9597 47.2542L62.9597 19.3324L0.135742 19.3324L0.135742 47.2542ZM22.8222 31.5482C22.8222 30.9374 23.1538 30.3615 23.6773 30.0474C24.2183 29.7332 24.8814 29.7158 25.4224 30.0299L41.1284 38.7555C41.6694 39.0521 42.0184 39.6455 42.0184 40.2737C42.0184 40.902 41.6694 41.4953 41.1284 41.792L25.4224 50.5175C25.1432 50.6746 24.8641 50.7444 24.5673 50.7444C24.2532 50.7444 23.9565 50.6571 23.6773 50.5001C23.1538 50.1859 22.8222 49.6101 22.8222 48.9993V31.5482ZM62.9597 15.8422C62.9597 7.18642 55.9095 0.136169 47.2537 0.136169L37.708 0.136169L48.1786 15.8422L62.9597 15.8422ZM44.0078 15.8422L33.5197 0.136169L15.8417 0.136169C15.5625 0.136169 15.3008 0.13617 15.039 0.153621L25.4922 15.8422L44.0078 15.8422ZM11.3044 0.816762C4.84754 2.75384 0.135742 8.75702 0.135742 15.8422L21.3214 15.8422L11.3044 0.816762Z" fill="#ECE6F9"/>
</g>
<defs>
<clipPath id="clip0_18_6770">
<rect width="62.824" height="62.824" fill="white" transform="translate(0.135742 0.136169)"/>
</clipPath>
</defs>
</svg>
