<svg width="200" height="51" viewBox="0 0 200 51" fill="none" xmlns="http://www.w3.org/2000/svg">
<path d="M30.038 23.7276C30.0595 22.0583 30.5029 20.4215 31.327 18.9696C32.151 17.5177 33.3289 16.2978 34.7511 15.4235C33.8476 14.1332 32.6557 13.0713 31.2701 12.3222C29.8844 11.5731 28.3432 11.1574 26.7688 11.1081C23.4103 10.7556 20.1544 13.1178 18.443 13.1178C16.6984 13.1178 14.0634 11.1431 11.226 11.2015C9.39064 11.2608 7.60194 11.7945 6.03419 12.7506C4.46643 13.7067 3.17308 15.0527 2.28014 16.6573C-1.58786 23.3541 1.29732 33.1962 5.00254 38.6094C6.85634 41.2601 9.0229 44.221 11.8578 44.116C14.6319 44.001 15.668 42.347 19.0166 42.347C22.3341 42.347 23.3062 44.116 26.1986 44.0493C29.1754 44.0009 31.0509 41.3868 32.8396 38.711C34.1716 36.8223 35.1965 34.7348 35.8765 32.526C34.147 31.7945 32.6712 30.5701 31.633 29.0055C30.5947 27.441 30.04 25.6054 30.038 23.7276Z" fill="white"/>
<path d="M24.5751 7.54765C26.1982 5.59923 26.9978 3.09487 26.8042 0.566406C24.3245 0.826847 22.034 2.01197 20.389 3.88563C19.5847 4.80096 18.9687 5.86583 18.5763 7.01937C18.1838 8.17291 18.0225 9.39249 18.1016 10.6084C19.3419 10.6212 20.5689 10.3524 21.6902 9.82218C22.8115 9.292 23.798 8.5143 24.5751 7.54765Z" fill="white"/>
<path d="M65.1055 37.4053H55.6387L53.3652 44.1182H49.3555L58.3223 19.2822H62.4883L71.4551 44.1182H67.3769L65.1055 37.4053ZM56.6191 34.3077H64.1231L60.4239 23.4131H60.3204L56.6191 34.3077Z" fill="white"/>
<path d="M90.8204 35.0659C90.8204 40.6928 87.8087 44.308 83.2637 44.308C82.1124 44.3683 80.9674 44.1031 79.9598 43.5428C78.9523 42.9825 78.1228 42.1498 77.5665 41.14H77.4805V50.1088H73.7637V26.0112H77.3614V29.0229H77.4297C78.0117 28.0179 78.8551 27.1896 79.8704 26.6259C80.8856 26.0622 82.0347 25.7843 83.1954 25.8217C87.791 25.8217 90.8204 29.4545 90.8204 35.0659ZM87.0001 35.0659C87.0001 31.3999 85.1055 28.9897 82.2149 28.9897C79.375 28.9897 77.4649 31.4506 77.4649 35.0659C77.4649 38.7143 79.375 41.1577 82.2149 41.1577C85.1055 41.1577 87.0001 38.7651 87.0001 35.0659Z" fill="white"/>
<path d="M110.75 35.0658C110.75 40.6928 107.738 44.308 103.193 44.308C102.042 44.3682 100.897 44.103 99.8895 43.5428C98.8819 42.9825 98.0525 42.1498 97.4962 41.14H97.4102V50.1088H93.6934V26.0111H97.291V29.0229H97.3594C97.9413 28.0179 98.7847 27.1896 99.8 26.6259C100.815 26.0622 101.964 25.7843 103.125 25.8217C107.721 25.8217 110.75 29.4545 110.75 35.0658ZM106.93 35.0658C106.93 31.3998 105.035 28.9897 102.145 28.9897C99.3047 28.9897 97.3946 31.4506 97.3946 35.0658C97.3946 38.7143 99.3047 41.1576 102.145 41.1576C105.035 41.1576 106.93 38.7651 106.93 35.0658Z" fill="white"/>
<path d="M123.922 37.1983C124.197 39.6612 126.59 41.2783 129.859 41.2783C132.992 41.2783 135.246 39.6612 135.246 37.4404C135.246 35.5127 133.887 34.3584 130.668 33.5674L127.449 32.792C122.889 31.6904 120.772 29.5576 120.772 26.0967C120.772 21.8115 124.506 18.8682 129.809 18.8682C135.057 18.8682 138.654 21.8115 138.775 26.0967H135.023C134.799 23.6182 132.75 22.1221 129.756 22.1221C126.762 22.1221 124.713 23.6358 124.713 25.8389C124.713 27.5947 126.022 28.6279 129.223 29.4189L131.959 30.0908C137.055 31.2958 139.172 33.3428 139.172 36.9755C139.172 41.622 135.471 44.5322 129.584 44.5322C124.076 44.5322 120.357 41.6904 120.117 37.1982L123.922 37.1983Z" fill="white"/>
<path d="M147.193 21.7256V26.0107H150.637V28.9541H147.193V38.9365C147.193 40.4873 147.883 41.21 149.396 41.21C149.805 41.2028 150.213 41.1741 150.619 41.124V44.0497C149.939 44.1769 149.247 44.2345 148.555 44.2216C144.889 44.2216 143.459 42.8447 143.459 39.3329V28.9541H140.826V26.0107H143.459V21.7256H147.193Z" fill="white"/>
<path d="M152.631 35.0654C152.631 29.3682 155.986 25.7881 161.219 25.7881C166.469 25.7881 169.809 29.3681 169.809 35.0654C169.809 40.7783 166.486 44.3428 161.219 44.3428C155.953 44.3428 152.631 40.7783 152.631 35.0654ZM166.021 35.0654C166.021 31.1572 164.23 28.8506 161.219 28.8506C158.207 28.8506 156.418 31.1748 156.418 35.0654C156.418 38.9892 158.207 41.2783 161.219 41.2783C164.23 41.2783 166.021 38.9892 166.021 35.0654Z" fill="white"/>
<path d="M172.873 26.011H176.418V29.093H176.504C176.744 28.1304 177.308 27.2798 178.101 26.684C178.894 26.0882 179.868 25.7837 180.859 25.8215C181.288 25.82 181.715 25.8665 182.133 25.9602V29.4367C181.592 29.2715 181.028 29.1956 180.463 29.2121C179.923 29.1902 179.385 29.2854 178.885 29.4912C178.385 29.697 177.936 30.0085 177.568 30.4042C177.2 30.8 176.922 31.2707 176.753 31.7841C176.584 32.2974 176.529 32.8412 176.59 33.3781V44.1184H172.873L172.873 26.011Z" fill="white"/>
<path d="M199.27 38.7998C198.77 42.0869 195.568 44.3428 191.473 44.3428C186.205 44.3428 182.936 40.8135 182.936 35.1514C182.936 29.4717 186.223 25.7881 191.316 25.7881C196.326 25.7881 199.477 29.2295 199.477 34.7197V35.9932H186.688V36.2178C186.628 36.8842 186.712 37.5555 186.932 38.1872C187.153 38.8189 187.505 39.3964 187.966 39.8815C188.426 40.3666 188.985 40.7481 189.604 41.0008C190.224 41.2534 190.89 41.3713 191.559 41.3467C192.437 41.429 193.318 41.2255 194.072 40.7667C194.825 40.3078 195.41 39.618 195.74 38.7998L199.27 38.7998ZM186.705 33.3955H195.758C195.791 32.7963 195.7 32.1967 195.491 31.6343C195.282 31.0719 194.958 30.5588 194.541 30.1272C194.124 29.6957 193.622 29.355 193.068 29.1266C192.513 28.8982 191.916 28.7869 191.316 28.7998C190.711 28.7962 190.111 28.9125 189.551 29.142C188.991 29.3715 188.482 29.7096 188.053 30.1369C187.624 30.5641 187.285 31.0721 187.053 31.6314C186.822 32.1907 186.704 32.7902 186.705 33.3955Z" fill="white"/>
<path d="M56.1523 0.58776C56.9316 0.531842 57.7135 0.649562 58.4417 0.932428C59.1699 1.21529 59.8263 1.65625 60.3635 2.2235C60.9006 2.79075 61.3052 3.47015 61.548 4.21269C61.7908 4.95524 61.8658 5.74241 61.7676 6.51744C61.7676 10.3299 59.707 12.5214 56.1523 12.5214H51.8418V0.58776H56.1523ZM53.6953 10.8338H55.9453C56.5021 10.867 57.0593 10.7757 57.5764 10.5665C58.0935 10.3573 58.5574 10.0354 58.9344 9.62426C59.3114 9.21313 59.5919 8.72311 59.7557 8.18988C59.9194 7.65664 59.9622 7.09361 59.8808 6.54176C59.9563 5.99209 59.9092 5.43255 59.7429 4.90322C59.5767 4.3739 59.2954 3.88789 58.9193 3.48003C58.5432 3.07217 58.0815 2.75255 57.5673 2.54408C57.0532 2.33561 56.4993 2.24344 55.9453 2.27418H53.6953V10.8338Z" fill="white"/>
<path d="M63.8619 8.01455C63.8053 7.42272 63.873 6.82558 64.0607 6.26144C64.2483 5.6973 64.5518 5.17862 64.9517 4.73866C65.3516 4.29869 65.839 3.94716 66.3827 3.70661C66.9264 3.46606 67.5144 3.3418 68.109 3.3418C68.7035 3.3418 69.2915 3.46606 69.8352 3.70661C70.3789 3.94716 70.8663 4.29869 71.2662 4.73866C71.6661 5.17862 71.9696 5.6973 72.1573 6.26144C72.3449 6.82558 72.4126 7.42272 72.356 8.01455C72.4137 8.607 72.3468 9.20496 72.1596 9.77001C71.9725 10.3351 71.6691 10.8547 71.2691 11.2955C70.8692 11.7364 70.3814 12.0886 69.8371 12.3297C69.2929 12.5708 68.7042 12.6953 68.109 12.6953C67.5137 12.6953 66.925 12.5708 66.3808 12.3297C65.8366 12.0886 65.3488 11.7364 64.9488 11.2955C64.5488 10.8547 64.2455 10.3351 64.0583 9.77001C63.8711 9.20496 63.8042 8.607 63.8619 8.01455ZM70.5279 8.01455C70.5279 6.06241 69.6509 4.92081 68.1119 4.92081C66.567 4.92081 65.6979 6.06241 65.6979 8.01457C65.6979 9.98235 66.567 11.1152 68.1119 11.1152C69.651 11.1151 70.5279 9.97451 70.5279 8.01455Z" fill="white"/>
<path d="M83.6465 12.5215H81.8027L79.9414 5.88866H79.8008L77.9473 12.5215H76.1211L73.6387 3.51562H75.4414L77.0547 10.3876H77.1875L79.0391 3.51562H80.7442L82.5957 10.3876H82.7363L84.3418 3.51562H86.1191L83.6465 12.5215Z" fill="white"/>
<path d="M88.207 3.51571H89.918V4.94637H90.0508C90.2761 4.43253 90.6561 4.00179 91.1378 3.71418C91.6196 3.42656 92.1791 3.29642 92.7383 3.34187C93.1765 3.30893 93.6165 3.375 94.0257 3.53519C94.4349 3.69538 94.8028 3.94559 95.1021 4.26728C95.4015 4.58897 95.6247 4.97389 95.7551 5.39353C95.8855 5.81317 95.9198 6.25677 95.8555 6.69147V12.5215H94.0781V7.13779C94.0781 5.69053 93.4492 4.97079 92.1348 4.97079C91.8373 4.95694 91.5403 5.00757 91.2641 5.11923C90.988 5.23089 90.7393 5.40094 90.5351 5.61771C90.3308 5.83448 90.1759 6.09285 90.0808 6.37511C89.9858 6.65737 89.9529 6.95685 89.9844 7.25301V12.5216H88.207L88.207 3.51571Z" fill="white"/>
<path d="M98.6875 0H100.465V12.5215H98.6875V0Z" fill="white"/>
<path d="M102.936 8.01472C102.879 7.42284 102.947 6.82568 103.135 6.26152C103.323 5.69736 103.626 5.17866 104.026 4.73868C104.426 4.2987 104.914 3.94717 105.457 3.70661C106.001 3.46606 106.589 3.3418 107.184 3.3418C107.778 3.3418 108.366 3.46606 108.91 3.70661C109.454 3.94717 109.941 4.2987 110.341 4.73868C110.741 5.17866 111.045 5.69736 111.232 6.26152C111.42 6.82568 111.488 7.42284 111.431 8.01472C111.489 8.60719 111.422 9.20516 111.235 9.77021C111.047 10.3353 110.744 10.8549 110.344 11.2957C109.944 11.7365 109.456 12.0888 108.912 12.3298C108.368 12.5709 107.779 12.6954 107.184 12.6954C106.588 12.6954 106 12.5709 105.455 12.3298C104.911 12.0888 104.423 11.7365 104.023 11.2957C103.623 10.8549 103.32 10.3353 103.133 9.77021C102.945 9.20516 102.878 8.60719 102.936 8.01472ZM109.602 8.01472C109.602 6.06258 108.725 4.92098 107.186 4.92098C105.641 4.92098 104.772 6.06258 104.772 8.01474C104.772 9.98252 105.641 11.1153 107.186 11.1153C108.725 11.1153 109.602 9.97468 109.602 8.01472Z" fill="white"/>
<path d="M113.301 9.9746C113.301 8.3535 114.508 7.41894 116.65 7.28612L119.09 7.1455V6.36816C119.09 5.41698 118.461 4.87988 117.246 4.87988C116.254 4.87988 115.566 5.24414 115.369 5.88086H113.648C113.83 4.33398 115.285 3.3418 117.328 3.3418C119.586 3.3418 120.859 4.4658 120.859 6.36816V12.5215H119.148V11.2559H119.008C118.722 11.7098 118.322 12.0799 117.846 12.3284C117.371 12.5768 116.838 12.6946 116.303 12.6699C115.925 12.7092 115.543 12.6688 115.181 12.5515C114.82 12.4341 114.487 12.2422 114.204 11.9883C113.921 11.7343 113.694 11.4239 113.539 11.0771C113.383 10.7303 113.302 10.3547 113.301 9.9746ZM119.09 9.20506V8.45214L116.891 8.59276C115.65 8.67576 115.088 9.09764 115.088 9.89158C115.088 10.7021 115.791 11.1738 116.758 11.1738C117.041 11.2025 117.327 11.1739 117.599 11.0897C117.871 11.0055 118.124 10.8675 118.341 10.6838C118.559 10.5001 118.737 10.2745 118.866 10.0205C118.994 9.76646 119.071 9.48914 119.09 9.20506Z" fill="white"/>
<path d="M123.195 8.01468C123.195 5.16898 124.658 3.36624 126.934 3.36624C127.496 3.34031 128.055 3.47511 128.544 3.7549C129.033 4.03469 129.432 4.4479 129.695 4.94624H129.828V0H131.605V12.5215H129.902V11.0986H129.762C129.479 11.5936 129.065 12.0017 128.567 12.2786C128.068 12.5556 127.503 12.6909 126.934 12.6699C124.643 12.67 123.195 10.8672 123.195 8.01468ZM125.031 8.01468C125.031 9.92484 125.932 11.0743 127.438 11.0743C128.936 11.0743 129.861 9.90826 129.861 8.0225C129.861 6.14554 128.926 4.96292 127.438 4.96292C125.941 4.96292 125.031 6.12014 125.031 8.01468Z" fill="white"/>
<path d="M138.96 8.01455C138.903 7.42272 138.971 6.82558 139.158 6.26144C139.346 5.6973 139.65 5.17862 140.049 4.73866C140.449 4.29869 140.937 3.94716 141.48 3.70661C142.024 3.46606 142.612 3.3418 143.207 3.3418C143.801 3.3418 144.389 3.46606 144.933 3.70661C145.477 3.94716 145.964 4.29869 146.364 4.73866C146.764 5.17862 147.067 5.6973 147.255 6.26144C147.443 6.82558 147.51 7.42272 147.454 8.01455C147.511 8.607 147.444 9.20496 147.257 9.77001C147.07 10.3351 146.767 10.8547 146.367 11.2955C145.967 11.7364 145.479 12.0886 144.935 12.3297C144.391 12.5708 143.802 12.6953 143.207 12.6953C142.611 12.6953 142.023 12.5708 141.478 12.3297C140.934 12.0886 140.446 11.7364 140.046 11.2955C139.646 10.8547 139.343 10.3351 139.156 9.77001C138.969 9.20496 138.902 8.607 138.96 8.01455ZM145.626 8.01455C145.626 6.06241 144.749 4.92081 143.21 4.92081C141.665 4.92081 140.796 6.06241 140.796 8.01457C140.796 9.98235 141.665 11.1152 143.21 11.1152C144.749 11.1151 145.626 9.97451 145.626 8.01455Z" fill="white"/>
<path d="M149.838 3.51571H151.549V4.94637H151.682C151.907 4.43253 152.287 4.00179 152.769 3.71418C153.25 3.42656 153.81 3.29642 154.369 3.34187C154.807 3.30893 155.247 3.375 155.657 3.53519C156.066 3.69538 156.434 3.94559 156.733 4.26728C157.032 4.58897 157.256 4.97389 157.386 5.39353C157.516 5.81317 157.551 6.25677 157.486 6.69147V12.5215H155.709V7.13779C155.709 5.69053 155.08 4.97079 153.766 4.97079C153.468 4.95694 153.171 5.00757 152.895 5.11923C152.619 5.23089 152.37 5.40094 152.166 5.61771C151.962 5.83448 151.807 6.09285 151.712 6.37511C151.617 6.65737 151.584 6.95685 151.615 7.25301V12.5216H149.838V3.51571Z" fill="white"/>
<path d="M167.529 1.27344V3.55664H169.48V5.05372H167.529V9.68458C167.529 10.6279 167.918 11.041 168.803 11.041C169.029 11.0403 169.256 11.0266 169.48 11V12.4805C169.161 12.5376 168.838 12.5679 168.514 12.5713C166.537 12.5713 165.75 11.876 165.75 10.1396V5.05364H164.32V3.55656H165.75V1.27344H167.529Z" fill="white"/>
<path d="M171.91 0H173.672V4.9629H173.812C174.049 4.44426 174.439 4.01108 174.931 3.72238C175.422 3.43369 175.99 3.30352 176.558 3.34962C176.994 3.3259 177.43 3.39868 177.835 3.56276C178.239 3.72685 178.603 3.97819 178.899 4.29887C179.195 4.61954 179.417 5.00165 179.549 5.41792C179.68 5.83418 179.718 6.27436 179.66 6.70704V12.5215H177.881V7.1455C177.881 5.70702 177.211 4.9785 175.955 4.9785C175.65 4.95345 175.342 4.99544 175.055 5.10155C174.767 5.20766 174.506 5.37531 174.29 5.59279C174.074 5.81026 173.909 6.0723 173.804 6.36058C173.7 6.64885 173.66 6.9564 173.688 7.2617V12.5215H171.91L171.91 0Z" fill="white"/>
<path d="M190.023 10.09C189.781 10.9131 189.258 11.625 188.545 12.1013C187.831 12.5776 186.973 12.7879 186.12 12.6954C185.527 12.7111 184.937 12.5975 184.392 12.3624C183.847 12.1274 183.36 11.7765 182.964 11.3342C182.569 10.892 182.274 10.3688 182.1 9.80121C181.927 9.23356 181.879 8.63499 181.96 8.04703C181.881 7.45726 181.93 6.85739 182.103 6.28805C182.276 5.7187 182.569 5.19317 182.963 4.74702C183.357 4.30087 183.842 3.94453 184.385 3.70212C184.928 3.4597 185.518 3.33687 186.113 3.34195C188.618 3.34195 190.13 5.05395 190.13 7.88195V8.50213H183.771V8.60173C183.743 8.93222 183.785 9.26488 183.893 9.57838C184.001 9.89188 184.174 10.1793 184.399 10.4222C184.625 10.6651 184.899 10.8582 185.204 10.989C185.509 11.1198 185.838 11.1854 186.169 11.1817C186.594 11.2328 187.025 11.1562 187.407 10.9618C187.788 10.7674 188.103 10.4639 188.312 10.0899L190.023 10.09ZM183.771 7.18765H188.32C188.342 6.88539 188.301 6.58179 188.199 6.29636C188.097 6.01092 187.937 5.74996 187.728 5.53025C187.519 5.31053 187.267 5.13692 186.987 5.02057C186.707 4.90422 186.406 4.8477 186.103 4.85465C185.795 4.85079 185.49 4.9085 185.206 5.02439C184.921 5.14028 184.662 5.312 184.445 5.52942C184.228 5.74685 184.056 6.00559 183.94 6.29038C183.824 6.57517 183.767 6.88025 183.771 7.18765Z" fill="white"/>
</svg>
