<svg width="233" height="54" viewBox="0 0 233 54" fill="none" xmlns="http://www.w3.org/2000/svg">
<path d="M72.4592 11.2198C71.7992 11.4598 70.5192 11.8398 68.9992 11.8398C67.2992 11.8398 65.8792 11.3998 64.7792 10.3398C63.7992 9.39981 63.1992 7.89981 63.1992 6.1398C63.1992 2.7798 65.5192 0.299805 69.3192 0.299805C70.6192 0.299805 71.6392 0.579805 72.1392 0.819805L71.7792 1.99981C71.1792 1.73981 70.4192 1.5198 69.2792 1.5198C66.5392 1.5198 64.7392 3.21981 64.7392 6.0598C64.7392 8.89981 66.4592 10.6198 69.0992 10.6198C70.0592 10.6198 70.6992 10.4798 71.0392 10.3198V6.9598H68.7392V5.7798H72.4592V11.1998V11.2198Z" fill="white" stroke="white" stroke-width="0.4" stroke-miterlimit="10"/>
<path d="M80.8595 6.41992H76.4595V10.4999H81.3595V11.7199H75.0195V0.419922H81.1195V1.63992H76.4795V5.19992H80.8795V6.39992L80.8595 6.41992Z" fill="white" stroke="white" stroke-width="0.4" stroke-miterlimit="10"/>
<path d="M86.0201 1.65992H82.5801V0.419922H90.9401V1.65992H87.4801V11.7199H86.0001V1.65992H86.0201Z" fill="white" stroke="white" stroke-width="0.4" stroke-miterlimit="10"/>
<path d="M97.8799 0.419922V11.7199H96.4199V0.419922H97.8799Z" fill="white" stroke="white" stroke-width="0.4" stroke-miterlimit="10"/>
<path d="M102.899 1.65992H99.459V0.419922H107.819V1.65992H104.359V11.7199H102.879V1.65992H102.899Z" fill="white" stroke="white" stroke-width="0.4" stroke-miterlimit="10"/>
<path d="M122.959 5.96023C122.959 9.84023 120.599 11.9002 117.719 11.9002C114.839 11.9002 112.639 9.58023 112.639 6.18023C112.639 2.60023 114.859 0.240234 117.879 0.240234C120.899 0.240234 122.959 2.60023 122.959 5.96023ZM114.199 6.14023C114.199 8.56023 115.499 10.7202 117.799 10.7202C120.099 10.7202 121.419 8.60023 121.419 6.02023C121.419 3.78023 120.239 1.42023 117.819 1.42023C115.399 1.42023 114.199 3.64023 114.199 6.12023V6.14023Z" fill="white" stroke="white" stroke-width="0.4" stroke-miterlimit="10"/>
<path d="M125.199 11.7199V0.419922H126.799L130.419 6.13992C131.259 7.45992 131.919 8.65992 132.439 9.79992H132.479C132.339 8.27992 132.319 6.89992 132.319 5.13992V0.419922H133.699V11.7199H132.219L128.639 5.97992C127.859 4.71992 127.099 3.43992 126.519 2.21992H126.459C126.539 3.65992 126.579 5.01992 126.579 6.89992V11.7199H125.199Z" fill="white" stroke="white" stroke-width="0.4" stroke-miterlimit="10"/>
<path d="M116.78 29.2198C112.08 29.2198 108.24 32.7998 108.24 37.7198C108.24 42.6398 112.08 46.2198 116.78 46.2198C121.48 46.2198 125.32 42.6198 125.32 37.7198C125.32 32.8198 121.48 29.2198 116.78 29.2198ZM116.78 42.8798C114.2 42.8798 111.98 40.7598 111.98 37.7198C111.98 34.6798 114.2 32.5598 116.78 32.5598C119.36 32.5598 121.58 34.6598 121.58 37.7198C121.58 40.7798 119.36 42.8798 116.78 42.8798ZM98.1596 29.2198C93.4596 29.2198 89.6196 32.7998 89.6196 37.7198C89.6196 42.6398 93.4596 46.2198 98.1596 46.2198C102.86 46.2198 106.7 42.6198 106.7 37.7198C106.7 32.8198 102.86 29.2198 98.1596 29.2198ZM98.1596 42.8798C95.5796 42.8798 93.3596 40.7598 93.3596 37.7198C93.3596 34.6798 95.5796 32.5598 98.1596 32.5598C100.74 32.5598 102.96 34.6598 102.96 37.7198C102.96 40.7798 100.74 42.8798 98.1596 42.8798ZM75.9996 31.8198V35.4198H84.6396C84.3796 37.4398 83.6996 38.9398 82.6796 39.9598C81.4196 41.2198 79.4596 42.5998 76.0196 42.5998C70.6996 42.5998 66.5396 38.3198 66.5396 32.9998C66.5396 27.6798 70.6996 23.3998 76.0196 23.3998C78.8796 23.3998 80.9796 24.5198 82.5196 25.9798L85.0596 23.4398C82.8996 21.3798 80.0396 19.7998 75.9996 19.7998C68.7196 19.7998 62.5996 25.7198 62.5996 33.0198C62.5996 40.3198 68.7196 46.2398 75.9996 46.2398C79.9396 46.2398 82.8996 44.9598 85.2196 42.5398C87.5996 40.1598 88.3396 36.7998 88.3396 34.0998C88.3396 33.2598 88.2796 32.4798 88.1396 31.8398H75.9996V31.8198ZM166.62 34.6198C165.92 32.7198 163.76 29.1998 159.34 29.1998C154.92 29.1998 151.32 32.6398 151.32 37.6998C151.32 42.4598 154.92 46.1998 159.76 46.1998C163.66 46.1998 165.92 43.8198 166.84 42.4398L163.94 40.4998C162.98 41.9198 161.66 42.8598 159.76 42.8598C157.86 42.8598 156.5 41.9998 155.64 40.2798L167.02 35.5798L166.64 34.6198H166.62ZM155.02 37.4598C154.92 34.1798 157.56 32.4998 159.46 32.4998C160.94 32.4998 162.2 33.2398 162.62 34.2998L155.02 37.4598ZM145.78 45.6998H149.52V20.6998H145.78V45.6998ZM139.66 31.0998H139.54C138.7 30.0998 137.1 29.1998 135.06 29.1998C130.8 29.1998 126.9 32.9398 126.9 37.7398C126.9 42.5398 130.8 46.2198 135.06 46.2198C137.08 46.2198 138.7 45.3198 139.54 44.2798H139.66V45.4998C139.66 48.7598 137.92 50.4998 135.12 50.4998C132.84 50.4998 131.42 48.8598 130.84 47.4798L127.58 48.8398C128.52 51.0998 131 53.8598 135.12 53.8598C139.5 53.8598 143.2 51.2798 143.2 44.9998V29.7198H139.66V31.0998ZM135.38 42.8598C132.8 42.8598 130.64 40.6998 130.64 37.7398C130.64 34.7798 132.8 32.5598 135.38 32.5598C137.96 32.5598 139.92 34.7598 139.92 37.7398C139.92 40.7198 137.92 42.8598 135.38 42.8598ZM184.14 20.6998H175.2V45.6998H178.94V36.2198H184.16C188.3 36.2198 192.36 33.2198 192.36 28.4598C192.36 23.6998 188.3 20.6998 184.16 20.6998H184.14ZM184.24 32.7598H178.94V24.1798H184.24C187.04 24.1798 188.62 26.4998 188.62 28.4598C188.62 30.4198 187.04 32.7398 184.24 32.7398V32.7598ZM207.3 29.1598C204.6 29.1598 201.8 30.3598 200.64 32.9798L203.96 34.3598C204.66 32.9798 205.98 32.5198 207.36 32.5198C209.28 32.5198 211.26 33.6798 211.28 35.7398V35.9998C210.6 35.6198 209.16 35.0398 207.38 35.0398C203.8 35.0398 200.18 36.9998 200.18 40.6598C200.18 43.9998 203.1 46.1598 206.38 46.1598C208.88 46.1598 210.28 45.0398 211.14 43.7198H211.26V45.6398H214.86V36.0598C214.86 31.6198 211.54 29.1398 207.26 29.1398L207.3 29.1598ZM206.84 42.8598C205.62 42.8598 203.92 42.2398 203.92 40.7398C203.92 38.8198 206.04 38.0798 207.88 38.0798C209.52 38.0798 210.3 38.4398 211.28 38.9198C211 41.2398 209 42.8798 206.84 42.8798V42.8598ZM228 29.6998L223.72 40.5398H223.6L219.16 29.6998H215.14L221.8 44.8598L218 53.2798H221.9L232.16 29.6998H228.02H228ZM194.38 45.6998H198.12V20.6998H194.38V45.6998Z" fill="white"/>
<path d="M22.1828 24.8366L0.642578 47.6916C1.31002 50.1793 3.57529 51.9996 6.26529 51.9996C7.33725 51.9996 8.34853 51.7164 9.21823 51.1906L9.27891 51.1501L33.5092 37.1742L22.1626 24.8164L22.1828 24.8366Z" fill="#EA4335"/>
<path d="M43.9656 20.9541H43.9454L33.4888 14.8662L21.6973 25.3633L33.5292 37.1953L43.9454 31.1883C45.7657 30.1972 46.9995 28.2758 46.9995 26.0712C46.9995 23.8666 45.7859 21.9452 43.9656 20.9743V20.9541Z" fill="#FBBC04"/>
<path d="M0.641708 4.32812C0.520354 4.81354 0.439453 5.29896 0.439453 5.82482V46.1951C0.439453 46.721 0.500129 47.2064 0.641708 47.6918L22.9101 25.4234L0.641708 4.32812Z" fill="#4285F4"/>
<path d="M22.3446 26.0101L33.4889 14.8658L9.27891 0.82925C8.40921 0.303385 7.3777 0 6.26529 0C3.57529 0 1.31002 1.84053 0.642578 4.30805L22.3446 25.9899V26.0101Z" fill="#34A853"/>
</svg>
