<svg width="119" height="119" viewBox="0 0 119 119" fill="none" xmlns="http://www.w3.org/2000/svg">
<g clip-path="url(#clip0_18_7005)">
<path d="M30.4359 30.2895C30.4359 13.9593 43.6084 0.721045 59.8574 0.721045C76.1064 0.721045 89.279 13.9593 89.279 30.2895C89.279 46.6197 76.1064 59.858 59.8574 59.858C43.6084 59.858 30.4359 46.6197 30.4359 30.2895Z" fill="#ECE6F9"/>
<path d="M17.4972 77.0101C23.0112 70.2573 32.4204 65.7717 42.2045 65.7717H77.5104C87.2942 65.7717 96.7038 70.2573 102.218 77.0101C105.016 80.4377 106.984 84.6784 107.155 89.3786C107.33 94.1787 105.606 98.8636 102.05 102.952C93.3856 112.913 79.5504 118.995 59.8574 118.995C40.1642 118.995 26.3295 112.913 17.6645 102.952C14.109 98.8636 12.385 94.1787 12.5599 89.3786C12.7312 84.6784 14.6987 80.4377 17.4972 77.0101Z" fill="#ECE6F9"/>
</g>
<defs>
<clipPath id="clip0_18_7005">
<rect width="118.274" height="118.274" fill="white" transform="translate(0.720703 0.721046)"/>
</clipPath>
</defs>
</svg>
