<svg width="105" height="105" viewBox="0 0 105 105" fill="none" xmlns="http://www.w3.org/2000/svg">
<path d="M48.241 70.5635L22.8858 48.3536C18.6321 45.2223 19.3858 40.0271 24.8353 40.0225H35.8895V12.4973C35.8895 10.1733 38.2578 8.30664 41.2071 8.30664H63.9746C66.9158 8.30664 69.2865 10.1733 69.2865 12.4973V40.0236H80.3453C85.789 40.0283 86.5438 45.2235 82.289 48.3548L56.9373 70.5635C55.6913 71.6508 54.0825 72.2295 52.483 72.1945C50.8858 72.1595 49.4018 71.5785 48.241 70.5635Z" fill="url(#paint0_linear_5_2040)"/>
<path d="M16.2793 93.107V86.6239C16.2793 83.7935 18.7351 81.5127 21.7848 81.5127H83.3265C86.3773 81.5127 88.832 83.7935 88.832 86.6239V93.107C88.832 95.935 86.3773 98.2182 83.3265 98.2182H21.7848C18.7351 98.2182 16.2793 95.9339 16.2793 93.107Z" fill="url(#paint1_linear_5_2040)"/>
<defs>
<linearGradient id="paint0_linear_5_2040" x1="20.1514" y1="40.2513" x2="85.0244" y2="40.2513" gradientUnits="userSpaceOnUse">
<stop stop-color="#FB9C4E"/>
<stop offset="0.5" stop-color="#EB2149"/>
<stop offset="1" stop-color="#A02EB2"/>
</linearGradient>
<linearGradient id="paint1_linear_5_2040" x1="16.2793" y1="89.8654" x2="88.832" y2="89.8654" gradientUnits="userSpaceOnUse">
<stop stop-color="#FB9C4E"/>
<stop offset="0.5" stop-color="#EB2149"/>
<stop offset="1" stop-color="#A02EB2"/>
</linearGradient>
</defs>
</svg>
