<svg width="105" height="105" viewBox="0 0 105 105" fill="none" xmlns="http://www.w3.org/2000/svg">
<path fill-rule="evenodd" clip-rule="evenodd" d="M52.4997 0C65.3417 4.52156 75.371 14.1418 78.1179 24.6026C78.6141 26.4976 78.9151 28.4384 79.0163 30.3946C70.953 23.7925 61.841 20.3179 52.4997 20.3179C43.1584 20.3179 34.0468 23.7925 25.9831 30.3946C26.0832 28.4384 26.3838 26.4975 26.8801 24.6026C29.6269 14.1418 39.6583 4.52156 52.4997 0ZM69.9477 27.3757C58.6539 21.2967 46.3394 21.2967 35.0465 27.3775C35.3584 45.4904 44.1606 53.769 52.3141 53.7863H52.3424C56.8082 53.7863 61.015 51.4434 64.1931 47.1872C67.7819 42.379 69.7656 35.5398 69.9469 27.3767L69.9477 27.3757ZM14.0443 61.6124C13.6717 61.8411 13.3523 62.1467 13.1075 62.5089C12.8627 62.871 12.6982 63.2813 12.6249 63.7122L7.19507 92.1865C6.9962 93.1653 7.10033 94.1814 7.49357 95.0996C7.8868 96.0177 8.55048 96.7942 9.39617 97.3256L21.2868 105H83.7126L95.6088 97.3256C96.452 96.7919 97.1134 96.015 97.5057 95.0974C97.898 94.1798 98.0026 93.1648 97.8058 92.1865L92.3712 63.7122C92.2991 63.281 92.1352 62.8703 91.8904 62.508C91.6457 62.1457 91.3258 61.8403 90.9527 61.6124L75.0107 51.403C73.6568 53.147 72.1248 54.7451 70.4395 56.1715C70.31 56.2811 70.1602 56.3642 69.9986 56.4159C69.837 56.4676 69.6668 56.487 69.4977 56.473C69.3286 56.4589 69.164 56.4117 69.0131 56.334C68.8623 56.2563 68.7283 56.1497 68.6186 56.0202C68.509 55.8907 68.426 55.7408 68.3742 55.5793C68.3225 55.4177 68.3031 55.2475 68.3172 55.0784C68.3312 54.9093 68.3785 54.7446 68.4562 54.5938C68.5338 54.443 68.6405 54.3089 68.77 54.1993C71.7578 51.6559 74.2033 48.5373 75.9609 45.0293C77.7185 41.5212 78.7523 37.6953 79.0007 33.7794C76.9678 31.9585 74.787 30.3099 72.4807 28.8506C72.0929 36.9401 69.9617 43.7803 66.2621 48.7331C62.585 53.6597 57.6433 56.37 52.344 56.37H52.3096C43.1582 56.3508 33.2988 47.7127 32.504 28.8588C30.2027 30.3163 28.0262 31.9622 25.997 33.7794C26.2447 37.6954 27.278 41.5215 29.0355 45.0296C30.7931 48.5378 33.2388 51.6563 36.227 54.1993C36.4798 54.4231 36.635 54.7369 36.6594 55.0737C36.6837 55.4105 36.5752 55.7435 36.3571 56.0013C36.139 56.2591 35.8286 56.4212 35.4925 56.453C35.1563 56.4849 34.821 56.3838 34.5584 56.1715C32.8731 54.7451 31.3411 53.147 29.987 51.403L14.0443 61.6124Z" fill="url(#paint0_linear_5_6804)"/>
<defs>
<linearGradient id="paint0_linear_5_6804" x1="7.09668" y1="52.5" x2="97.9026" y2="52.5" gradientUnits="userSpaceOnUse">
<stop stop-color="#FB9C4E"/>
<stop offset="0.5" stop-color="#EB2149"/>
<stop offset="1" stop-color="#A02EB2"/>
</linearGradient>
</defs>
</svg>
