<svg width="105" height="105" viewBox="0 0 105 105" fill="none" xmlns="http://www.w3.org/2000/svg">
<path d="M86.0758 86.0755L18.9209 18.9227L18.9065 18.9062C18.543 18.5456 18.1119 18.2602 17.638 18.0661C17.1641 17.8721 16.6567 17.7733 16.1446 17.7754C15.6325 17.7775 15.1259 17.8805 14.6536 18.0784C14.1813 18.2762 13.7526 18.5652 13.392 18.9288C13.0314 19.2924 12.7459 19.7234 12.5519 20.1973C12.3579 20.6712 12.2591 21.1787 12.2612 21.6908C12.2654 22.7249 12.6803 23.7151 13.4145 24.4434L19.2941 30.3229C12.1638 35.2064 6.02633 41.4002 1.2083 48.5749C0.421512 49.7365 0.000976562 51.1073 0.000976562 52.5103C0.000976562 53.9134 0.421512 55.2842 1.2083 56.4458C13.5068 74.6485 33.0036 85.3126 52.5004 85.1793C58.8157 85.2022 65.0889 84.1508 71.0518 82.0703L80.5694 91.588C81.3027 92.2976 82.2852 92.6913 83.3056 92.6843C84.326 92.6774 85.303 92.2704 86.0266 91.5508C86.7502 90.8313 87.1626 89.8566 87.1753 88.8362C87.1879 87.8158 86.7998 86.8312 86.0942 86.0939L86.0758 86.0755ZM52.5004 74.5952C48.8065 74.5938 45.1719 73.6667 41.9286 71.8986C38.6854 70.1305 35.937 67.5778 33.9346 64.4738C31.9322 61.3697 30.7397 57.8133 30.466 54.1296C30.1923 50.4459 30.8462 46.7523 32.3679 43.3864L38.51 49.5285C38.0152 51.8598 38.1108 54.2778 38.7881 56.5628C39.4653 58.8478 40.7028 60.9273 42.388 62.6125C44.0732 64.2977 46.1527 65.5352 48.4377 66.2124C50.7227 66.8897 53.1407 66.9853 55.472 66.4905L61.6141 72.6326C58.7513 73.9306 55.6436 74.5999 52.5004 74.5952Z" fill="url(#paint0_linear_5_3624)"/>
<path d="M103.793 48.5647C91.4941 30.3517 71.9974 19.6876 52.5006 19.8209C46.1853 19.7981 39.912 20.8494 33.9492 22.9299L43.3828 32.3635C47.4763 30.511 52.0372 29.9501 56.4577 30.7554C60.8781 31.5608 64.9481 33.6942 68.1252 36.8714C71.3024 40.0485 73.4358 44.1185 74.2412 48.539C75.0466 52.9594 74.4856 57.5203 72.6331 61.6138L85.7048 74.6855C92.8363 69.8028 98.9746 63.6089 103.793 56.4335C104.579 55.2721 104.999 53.9017 104.999 52.4991C104.999 51.0965 104.579 49.7261 103.793 48.5647Z" fill="url(#paint1_linear_5_3624)"/>
<path d="M52.4999 38.1978C51.5012 38.1979 50.5053 38.3024 49.5283 38.5095L66.4903 55.4694C66.9326 53.3856 66.9039 51.2294 66.4061 49.1581C65.9084 47.0869 64.9542 45.153 63.6134 43.4977C62.2726 41.8424 60.579 40.5075 58.6562 39.5906C56.7334 38.6736 54.6301 38.1978 52.4999 38.1978Z" fill="url(#paint2_linear_5_3624)"/>
<defs>
<linearGradient id="paint0_linear_5_3624" x1="0.000976562" y1="55.2299" x2="87.1756" y2="55.2299" gradientUnits="userSpaceOnUse">
<stop stop-color="#FB9C4E"/>
<stop offset="0.5" stop-color="#EB2149"/>
<stop offset="1" stop-color="#A02EB2"/>
</linearGradient>
<linearGradient id="paint1_linear_5_3624" x1="33.9492" y1="47.2526" x2="104.999" y2="47.2526" gradientUnits="userSpaceOnUse">
<stop stop-color="#FB9C4E"/>
<stop offset="0.5" stop-color="#EB2149"/>
<stop offset="1" stop-color="#A02EB2"/>
</linearGradient>
<linearGradient id="paint2_linear_5_3624" x1="49.5283" y1="46.8336" x2="66.802" y2="46.8336" gradientUnits="userSpaceOnUse">
<stop stop-color="#FB9C4E"/>
<stop offset="0.5" stop-color="#EB2149"/>
<stop offset="1" stop-color="#A02EB2"/>
</linearGradient>
</defs>
</svg>
