<svg width="105" height="105" viewBox="0 0 105 105" fill="none" xmlns="http://www.w3.org/2000/svg">
<path fill-rule="evenodd" clip-rule="evenodd" d="M54.31 34.1581C59.1801 34.1581 63.1431 30.1903 63.1431 25.3213C63.1431 20.4524 59.1804 16.4845 54.31 16.4845C49.4398 16.4845 45.477 20.4524 45.477 25.3213C45.477 30.1905 49.4398 34.1581 54.31 34.1581ZM54.8395 56.3039L50.588 60.5554C49.7488 61.3946 48.3797 61.3946 47.5405 60.5554L31.0365 44.0513C25.0295 38.0425 16.0711 36.221 8.23361 39.2373C6.81632 39.7828 5.30469 38.7451 5.30469 37.2263V22.48C5.30469 13.0175 13.0074 5.30713 22.4751 5.30713H82.5176C91.9865 5.30713 99.6942 13.0175 99.6942 22.48V59.548C99.6942 61.4694 97.3747 62.4302 96.0159 61.0722L91.2453 56.3037C81.2199 46.2807 64.8655 46.2805 54.8395 56.3039ZM54.31 9.58793C62.9841 9.58793 70.0384 16.6473 70.0384 25.3213C70.0384 33.9953 62.9841 41.0547 54.31 41.0547C45.6384 41.0547 38.5815 33.9953 38.5815 25.3213C38.5815 16.6473 45.6384 9.58793 54.31 9.58793ZM59.716 61.1805L24.8831 96.0144C23.5244 97.3731 24.4854 99.6929 26.4068 99.6929H82.5176C91.9865 99.6929 99.6944 91.9902 99.6944 82.5213L99.6942 75.3924C99.6942 74.7987 99.4825 74.288 99.0627 73.8682L86.369 61.1805C79.0377 53.852 67.0474 53.8518 59.716 61.1805ZM5.30469 50.2315V82.5213C5.30469 88.1571 8.0351 93.1646 12.2417 96.297C13.1057 96.9403 14.2908 96.8538 15.0525 96.0923L42.6654 68.4794C43.5046 67.6402 43.5046 66.2711 42.6654 65.4319L26.1601 48.9279C20.6343 43.4024 11.6322 43.2913 5.97488 48.6701C5.53089 49.0919 5.30469 49.6192 5.30469 50.2315Z" fill="url(#paint0_linear_5_2084)"/>
<defs>
<linearGradient id="paint0_linear_5_2084" x1="5.30469" y1="52.5" x2="99.6944" y2="52.5" gradientUnits="userSpaceOnUse">
<stop stop-color="#FB9C4E"/>
<stop offset="0.5" stop-color="#EB2149"/>
<stop offset="1" stop-color="#A02EB2"/>
</linearGradient>
</defs>
</svg>
